<?xml version="1.0" encoding="UTF-8"?>
<svg xmlns="http://www.w3.org/2000/svg" width="1024" height="1024" viewBox="0 0 1024 1024">
<path d="M496,181h33v1h-33zM485,182h12v1h-12zM530,182h13v1h-13zM476,183h8v1h-8zM543,183h9v1h-9zM467,184h8v1h-8zM553,184h7v1h-7zM462,185h5v1h-5zM560,185h6v1h-6zM456,186h6v1h-6zM566,186h5v1h-5zM451,187h5v1h-5zM571,187h5v1h-5zM447,188h4v1h-4zM576,188h4v1h-4zM442,189h4v1h-4zM581,189h4v1h-4zM438,190h4v1h-4zM585,190h4v1h-4zM434,191h4v1h-4zM589,191h5v1h-5zM430,192h4v1h-4zM593,192h5v1h-5zM426,193h4v1h-4zM597,193h4v1h-4zM423,194h3v1h-3zM601,194h3v1h-3zM420,195h3v1h-3zM604,195h3v1h-3zM417,196h3v1h-3zM607,196h3v1h-3zM413,197h4v1h-4zM610,197h3v1h-3zM410,198h3v1h-3zM613,198h3v1h-3zM408,199h2v1h-2zM616,199h3v1h-3zM404,200h3v1h-3zM619,200h4v1h-4zM402,201h3v1h-3zM495,201h36v1h-36zM622,201h3v1h-3zM399,202h3v1h-3zM484,202h58v1h-58zM625,202h2v1h-2zM396,203h3v1h-3zM476,203h74v1h-74zM627,203h3v1h-3zM394,204h3v1h-3zM470,204h87v1h-87zM630,204h2v1h-2zM392,205h2v1h-2zM463,205h33v1h-33zM533,205h31v1h-31zM632,205h3v1h-3zM389,206h3v1h-3zM458,206h26v1h-26zM546,206h23v1h-23zM635,206h2v1h-2zM387,207h2v1h-2zM452,207h24v1h-24zM552,207h22v1h-22zM637,207h3v1h-3zM384,208h3v1h-3zM448,208h21v1h-21zM559,208h20v1h-20zM639,208h3v1h-3zM382,209h2v1h-2zM444,209h19v1h-19zM566,209h17v1h-17zM641,209h3v1h-3zM380,210h2v1h-2zM440,210h18v1h-18zM571,210h16v1h-16zM644,210h2v1h-2zM378,211h2v1h-2zM436,211h18v1h-18zM576,211h14v1h-14zM646,211h3v1h-3zM376,212h2v1h-2zM433,212h17v1h-17zM580,212h14v1h-14zM648,212h3v1h-3zM374,213h2v1h-2zM430,213h15v1h-15zM584,213h14v1h-14zM650,213h3v1h-3zM372,214h1v1h-1zM426,214h16v1h-16zM588,214h13v1h-13zM653,214h2v1h-2zM369,215h2v1h-2zM423,215h15v1h-15zM592,215h12v1h-12zM655,215h2v1h-2zM367,216h2v1h-2zM420,216h14v1h-14zM596,216h11v1h-11zM656,216h3v1h-3zM366,217h2v1h-2zM417,217h13v1h-13zM599,217h11v1h-11zM658,217h3v1h-3zM364,218h2v1h-2zM414,218h13v1h-13zM602,218h10v1h-10zM660,218h2v1h-2zM362,219h2v1h-2zM412,219h12v1h-12zM605,219h10v1h-10zM662,219h2v1h-2zM360,220h2v1h-2zM409,220h12v1h-12zM608,220h10v1h-10zM664,220h2v1h-2zM358,221h2v1h-2zM406,221h13v1h-13zM611,221h10v1h-10zM666,221h2v1h-2zM356,222h2v1h-2zM404,222h12v1h-12zM614,222h9v1h-9zM667,222h3v1h-3zM355,223h1v1h-1zM401,223h12v1h-12zM617,223h8v1h-8zM669,223h2v1h-2zM353,224h2v1h-2zM399,224h11v1h-11zM620,224h8v1h-8zM671,224h2v1h-2zM351,225h2v1h-2zM396,225h12v1h-12zM623,225h7v1h-7zM673,225h2v1h-2zM349,226h2v1h-2zM394,226h11v1h-11zM625,226h7v1h-7zM674,226h2v1h-2zM348,227h2v1h-2zM392,227h10v1h-10zM627,227h8v1h-8zM676,227h2v1h-2zM346,228h2v1h-2zM390,228h10v1h-10zM629,228h8v1h-8zM678,228h2v1h-2zM344,229h2v1h-2zM387,229h11v1h-11zM632,229h7v1h-7zM679,229h2v1h-2zM343,230h2v1h-2zM385,230h11v1h-11zM634,230h7v1h-7zM681,230h2v1h-2zM341,231h2v1h-2zM383,231h11v1h-11zM636,231h7v1h-7zM682,231h2v1h-2zM340,232h1v1h-1zM381,232h11v1h-11zM638,232h7v1h-7zM684,232h2v1h-2zM338,233h2v1h-2zM379,233h10v1h-10zM640,233h7v1h-7zM686,233h1v1h-1zM337,234h1v1h-1zM377,234h10v1h-10zM642,234h7v1h-7zM687,234h2v1h-2zM335,235h2v1h-2zM376,235h9v1h-9zM644,235h7v1h-7zM689,235h1v1h-1zM334,236h1v1h-1zM374,236h9v1h-9zM646,236h7v1h-7zM690,236h2v1h-2zM332,237h2v1h-2zM372,237h9v1h-9zM648,237h7v1h-7zM692,237h1v1h-1zM331,238h2v1h-2zM370,238h9v1h-9zM650,238h7v1h-7zM693,238h2v1h-2zM330,239h1v1h-1zM368,239h9v1h-9zM652,239h6v1h-6zM694,239h2v1h-2zM328,240h2v1h-2zM366,240h10v1h-10zM654,240h6v1h-6zM696,240h2v1h-2zM327,241h2v1h-2zM365,241h9v1h-9zM656,241h6v1h-6zM697,241h2v1h-2zM326,242h1v1h-1zM363,242h9v1h-9zM657,242h7v1h-7zM699,242h1v1h-1zM324,243h2v1h-2zM361,243h9v1h-9zM659,243h6v1h-6zM700,243h2v1h-2zM323,244h1v1h-1zM360,244h9v1h-9zM661,244h6v1h-6zM701,244h2v1h-2zM321,245h2v1h-2zM358,245h8v1h-8zM663,245h5v1h-5zM703,245h2v1h-2zM320,246h2v1h-2zM357,246h8v1h-8zM664,246h6v1h-6zM704,246h2v1h-2zM319,247h1v1h-1zM355,247h8v1h-8zM666,247h5v1h-5zM705,247h2v1h-2zM318,248h1v1h-1zM353,248h9v1h-9zM667,248h6v1h-6zM707,248h1v1h-1zM317,249h1v1h-1zM352,249h8v1h-8zM669,249h5v1h-5zM708,249h2v1h-2zM315,250h2v1h-2zM350,250h8v1h-8zM670,250h6v1h-6zM709,250h2v1h-2zM314,251h1v1h-1zM349,251h8v1h-8zM672,251h5v1h-5zM711,251h1v1h-1zM313,252h1v1h-1zM348,252h7v1h-7zM673,252h6v1h-6zM712,252h1v1h-1zM312,253h1v1h-1zM346,253h8v1h-8zM675,253h5v1h-5zM713,253h2v1h-2zM310,254h1v1h-1zM345,254h7v1h-7zM676,254h6v1h-6zM714,254h2v1h-2zM309,255h1v1h-1zM343,255h8v1h-8zM678,255h5v1h-5zM715,255h2v1h-2zM308,256h1v1h-1zM342,256h8v1h-8zM679,256h6v1h-6zM717,256h1v1h-1zM307,257h1v1h-1zM341,257h7v1h-7zM681,257h5v1h-5zM718,257h1v1h-1zM306,258h1v1h-1zM339,258h8v1h-8zM682,258h5v1h-5zM719,258h1v1h-1zM305,259h1v1h-1zM338,259h7v1h-7zM684,259h4v1h-4zM720,259h2v1h-2zM303,260h2v1h-2zM337,260h7v1h-7zM685,260h5v1h-5zM721,260h2v1h-2zM302,261h1v1h-1zM336,261h6v1h-6zM686,261h5v1h-5zM722,261h2v1h-2zM301,262h1v1h-1zM334,262h7v1h-7zM688,262h4v1h-4zM724,262h1v1h-1zM300,263h1v1h-1zM333,263h7v1h-7zM689,263h5v1h-5zM725,263h1v1h-1zM299,264h1v1h-1zM332,264h7v1h-7zM690,264h5v1h-5zM726,264h1v1h-1zM298,265h1v1h-1zM330,265h7v1h-7zM692,265h4v1h-4zM727,265h1v1h-1zM297,266h1v1h-1zM329,266h7v1h-7zM693,266h4v1h-4zM728,266h1v1h-1zM296,267h1v1h-1zM328,267h7v1h-7zM694,267h5v1h-5zM729,267h1v1h-1zM294,268h2v1h-2zM327,268h7v1h-7zM501,268h29v1h-29zM695,268h5v1h-5zM730,268h2v1h-2zM293,269h1v1h-1zM325,269h7v1h-7zM490,269h10v1h-10zM532,269h11v1h-11zM696,269h5v1h-5zM731,269h2v1h-2zM292,270h1v1h-1zM324,270h7v1h-7zM483,270h6v1h-6zM542,270h7v1h-7zM698,270h4v1h-4zM732,270h2v1h-2zM291,271h1v1h-1zM323,271h7v1h-7zM477,271h5v1h-5zM550,271h4v1h-4zM699,271h5v1h-5zM733,271h2v1h-2zM290,272h1v1h-1zM322,272h7v1h-7zM472,272h4v1h-4zM555,272h5v1h-5zM700,272h5v1h-5zM734,272h2v1h-2zM289,273h2v1h-2zM321,273h6v1h-6zM467,273h4v1h-4zM560,273h3v1h-3zM701,273h5v1h-5zM735,273h2v1h-2zM288,274h1v1h-1zM320,274h6v1h-6zM464,274h3v1h-3zM564,274h3v1h-3zM703,274h4v1h-4zM736,274h2v1h-2zM287,275h1v1h-1zM318,275h7v1h-7zM460,275h3v1h-3zM568,275h3v1h-3zM704,275h4v1h-4zM737,275h2v1h-2zM286,276h1v1h-1zM317,276h7v1h-7zM457,276h3v1h-3zM571,276h3v1h-3zM705,276h4v1h-4zM738,276h2v1h-2zM285,277h1v1h-1zM316,277h7v1h-7zM454,277h3v1h-3zM575,277h2v1h-2zM706,277h5v1h-5zM739,277h2v1h-2zM284,278h1v1h-1zM315,278h6v1h-6zM451,278h2v1h-2zM578,278h3v1h-3zM707,278h5v1h-5zM740,278h2v1h-2zM283,279h1v1h-1zM314,279h6v1h-6zM448,279h2v1h-2zM580,279h3v1h-3zM708,279h5v1h-5zM741,279h2v1h-2zM282,280h1v1h-1zM313,280h6v1h-6zM445,280h2v1h-2zM583,280h3v1h-3zM709,280h5v1h-5zM742,280h2v1h-2zM281,281h2v1h-2zM312,281h6v1h-6zM442,281h3v1h-3zM586,281h2v1h-2zM710,281h5v1h-5zM743,281h2v1h-2zM280,282h2v1h-2zM311,282h6v1h-6zM440,282h2v1h-2zM589,282h2v1h-2zM712,282h4v1h-4zM744,282h1v1h-1zM280,283h1v1h-1zM310,283h6v1h-6zM437,283h2v1h-2zM591,283h2v1h-2zM713,283h4v1h-4zM745,283h1v1h-1zM279,284h1v1h-1zM309,284h6v1h-6zM435,284h2v1h-2zM593,284h3v1h-3zM714,284h4v1h-4zM746,284h1v1h-1zM278,285h1v1h-1zM308,285h6v1h-6zM432,285h2v1h-2zM595,285h3v1h-3zM715,285h4v1h-4zM747,285h1v1h-1zM277,286h1v1h-1zM307,286h6v1h-6zM430,286h2v1h-2zM598,286h2v1h-2zM716,286h4v1h-4zM748,286h1v1h-1zM276,287h1v1h-1zM306,287h6v1h-6zM428,287h2v1h-2zM600,287h2v1h-2zM717,287h4v1h-4zM749,287h1v1h-1zM275,288h1v1h-1zM305,288h6v1h-6zM425,288h3v1h-3zM602,288h2v1h-2zM718,288h4v1h-4zM750,288h1v1h-1zM274,289h1v1h-1zM304,289h6v1h-6zM424,289h2v1h-2zM604,289h2v1h-2zM719,289h4v1h-4zM751,289h1v1h-1zM273,290h1v1h-1zM303,290h6v1h-6zM422,290h2v1h-2zM606,290h2v1h-2zM720,290h4v1h-4zM752,290h1v1h-1zM272,291h1v1h-1zM302,291h6v1h-6zM420,291h2v1h-2zM608,291h2v1h-2zM721,291h4v1h-4zM752,291h2v1h-2zM271,292h2v1h-2zM301,292h6v1h-6zM418,292h2v1h-2zM610,292h1v1h-1zM722,292h4v1h-4zM753,292h1v1h-1zM271,293h1v1h-1zM300,293h6v1h-6zM416,293h2v1h-2zM612,293h1v1h-1zM723,293h4v1h-4zM754,293h1v1h-1zM270,294h1v1h-1zM299,294h6v1h-6zM414,294h2v1h-2zM613,294h2v1h-2zM724,294h4v1h-4zM755,294h1v1h-1zM269,295h1v1h-1zM298,295h6v1h-6zM412,295h2v1h-2zM615,295h2v1h-2zM725,295h4v1h-4zM756,295h1v1h-1zM268,296h1v1h-1zM297,296h6v1h-6zM411,296h1v1h-1zM617,296h2v1h-2zM726,296h4v1h-4zM757,296h1v1h-1zM267,297h1v1h-1zM296,297h6v1h-6zM409,297h2v1h-2zM618,297h2v1h-2zM727,297h4v1h-4zM757,297h2v1h-2zM266,298h1v1h-1zM295,298h6v1h-6zM407,298h2v1h-2zM620,298h2v1h-2zM728,298h4v1h-4zM758,298h1v1h-1zM265,299h2v1h-2zM294,299h6v1h-6zM406,299h1v1h-1zM622,299h1v1h-1zM729,299h4v1h-4zM759,299h1v1h-1zM265,300h1v1h-1zM293,300h6v1h-6zM404,300h2v1h-2zM623,300h2v1h-2zM730,300h4v1h-4zM760,300h1v1h-1zM264,301h1v1h-1zM292,301h6v1h-6zM402,301h2v1h-2zM625,301h1v1h-1zM731,301h3v1h-3zM761,301h1v1h-1zM263,302h1v1h-1zM291,302h6v1h-6zM401,302h1v1h-1zM626,302h2v1h-2zM731,302h4v1h-4zM761,302h2v1h-2zM262,303h1v1h-1zM290,303h6v1h-6zM400,303h1v1h-1zM628,303h1v1h-1zM732,303h4v1h-4zM762,303h2v1h-2zM261,304h1v1h-1zM289,304h6v1h-6zM398,304h1v1h-1zM629,304h2v1h-2zM733,304h4v1h-4zM763,304h1v1h-1zM261,305h1v1h-1zM289,305h5v1h-5zM396,305h2v1h-2zM631,305h1v1h-1zM734,305h4v1h-4zM764,305h1v1h-1zM260,306h1v1h-1zM288,306h6v1h-6zM395,306h2v1h-2zM632,306h2v1h-2zM735,306h4v1h-4zM765,306h1v1h-1zM259,307h1v1h-1zM287,307h6v1h-6zM394,307h1v1h-1zM633,307h2v1h-2zM736,307h4v1h-4zM765,307h2v1h-2zM258,308h1v1h-1zM286,308h6v1h-6zM392,308h2v1h-2zM635,308h1v1h-1zM737,308h3v1h-3zM766,308h1v1h-1zM258,309h1v1h-1zM285,309h6v1h-6zM391,309h2v1h-2zM636,309h2v1h-2zM737,309h4v1h-4zM767,309h1v1h-1zM257,310h1v1h-1zM284,310h6v1h-6zM390,310h1v1h-1zM638,310h1v1h-1zM738,310h4v1h-4zM768,310h1v1h-1zM256,311h1v1h-1zM283,311h6v1h-6zM388,311h2v1h-2zM639,311h1v1h-1zM739,311h4v1h-4zM768,311h1v1h-1zM255,312h1v1h-1zM283,312h5v1h-5zM387,312h1v1h-1zM640,312h2v1h-2zM740,312h4v1h-4zM769,312h1v1h-1zM255,313h1v1h-1zM282,313h6v1h-6zM386,313h1v1h-1zM641,313h2v1h-2zM741,313h4v1h-4zM770,313h1v1h-1zM254,314h1v1h-1zM281,314h6v1h-6zM385,314h1v1h-1zM643,314h1v1h-1zM742,314h3v1h-3zM770,314h2v1h-2zM253,315h1v1h-1zM280,315h6v1h-6zM383,315h2v1h-2zM644,315h1v1h-1zM742,315h4v1h-4zM771,315h1v1h-1zM279,316h6v1h-6zM382,316h1v1h-1zM645,316h1v1h-1zM743,316h4v1h-4zM772,316h1v1h-1zM252,317h1v1h-1zM279,317h5v1h-5zM381,317h1v1h-1zM646,317h2v1h-2zM744,317h4v1h-4zM772,317h2v1h-2zM251,318h1v1h-1zM278,318h6v1h-6zM380,318h1v1h-1zM647,318h2v1h-2zM745,318h3v1h-3zM773,318h1v1h-1zM250,319h1v1h-1zM277,319h6v1h-6zM378,319h2v1h-2zM648,319h2v1h-2zM745,319h4v1h-4zM774,319h1v1h-1zM250,320h1v1h-1zM276,320h6v1h-6zM377,320h2v1h-2zM650,320h1v1h-1zM746,320h4v1h-4zM775,320h1v1h-1zM249,321h1v1h-1zM276,321h5v1h-5zM376,321h1v1h-1zM651,321h1v1h-1zM747,321h4v1h-4zM775,321h2v1h-2zM248,322h2v1h-2zM275,322h6v1h-6zM375,322h1v1h-1zM652,322h1v1h-1zM748,322h3v1h-3zM776,322h1v1h-1zM248,323h1v1h-1zM274,323h6v1h-6zM374,323h1v1h-1zM653,323h1v1h-1zM748,323h4v1h-4zM777,323h1v1h-1zM247,324h1v1h-1zM273,324h6v1h-6zM373,324h1v1h-1zM654,324h1v1h-1zM749,324h4v1h-4zM777,324h1v1h-1zM246,325h2v1h-2zM273,325h5v1h-5zM372,325h1v1h-1zM655,325h1v1h-1zM750,325h4v1h-4zM778,325h1v1h-1zM246,326h1v1h-1zM272,326h5v1h-5zM371,326h1v1h-1zM656,326h1v1h-1zM750,326h4v1h-4zM779,326h1v1h-1zM245,327h1v1h-1zM271,327h6v1h-6zM370,327h1v1h-1zM657,327h1v1h-1zM751,327h4v1h-4zM779,327h1v1h-1zM245,328h1v1h-1zM270,328h6v1h-6zM369,328h1v1h-1zM658,328h1v1h-1zM752,328h4v1h-4zM780,328h1v1h-1zM244,329h1v1h-1zM270,329h5v1h-5zM368,329h1v1h-1zM659,329h1v1h-1zM752,329h5v1h-5zM780,329h2v1h-2zM243,330h1v1h-1zM269,330h5v1h-5zM367,330h1v1h-1zM660,330h1v1h-1zM753,330h4v1h-4zM781,330h1v1h-1zM243,331h1v1h-1zM268,331h6v1h-6zM366,331h1v1h-1zM661,331h1v1h-1zM754,331h4v1h-4zM782,331h1v1h-1zM242,332h1v1h-1zM268,332h5v1h-5zM365,332h1v1h-1zM662,332h1v1h-1zM755,332h4v1h-4zM782,332h2v1h-2zM242,333h1v1h-1zM267,333h5v1h-5zM364,333h1v1h-1zM663,333h1v1h-1zM755,333h4v1h-4zM783,333h1v1h-1zM241,334h1v1h-1zM266,334h6v1h-6zM363,334h1v1h-1zM664,334h1v1h-1zM756,334h4v1h-4zM783,334h2v1h-2zM240,335h1v1h-1zM266,335h5v1h-5zM362,335h1v1h-1zM411,335h53v1h-53zM573,335h59v1h-59zM665,335h1v1h-1zM756,335h5v1h-5zM784,335h1v1h-1zM240,336h1v1h-1zM265,336h5v1h-5zM361,336h1v1h-1zM463,336h1v1h-1zM572,336h1v1h-1zM630,336h1v1h-1zM666,336h1v1h-1zM757,336h4v1h-4zM785,336h1v1h-1zM239,337h1v1h-1zM264,337h6v1h-6zM360,337h1v1h-1zM463,337h1v1h-1zM571,337h1v1h-1zM629,337h1v1h-1zM666,337h2v1h-2zM758,337h4v1h-4zM785,337h1v1h-1zM238,338h2v1h-2zM264,338h5v1h-5zM359,338h1v1h-1zM463,338h1v1h-1zM570,338h1v1h-1zM628,338h1v1h-1zM667,338h1v1h-1zM758,338h4v1h-4zM786,338h1v1h-1zM238,339h1v1h-1zM263,339h5v1h-5zM359,339h1v1h-1zM463,339h1v1h-1zM569,339h1v1h-1zM627,339h1v1h-1zM668,339h1v1h-1zM759,339h4v1h-4zM786,339h2v1h-2zM237,340h1v1h-1zM262,340h6v1h-6zM358,340h1v1h-1zM463,340h1v1h-1zM568,340h1v1h-1zM626,340h2v1h-2zM669,340h1v1h-1zM760,340h4v1h-4zM787,340h1v1h-1zM237,341h1v1h-1zM262,341h5v1h-5zM357,341h1v1h-1zM463,341h1v1h-1zM567,341h2v1h-2zM625,341h2v1h-2zM670,341h1v1h-1zM760,341h4v1h-4zM788,341h1v1h-1zM236,342h1v1h-1zM261,342h6v1h-6zM356,342h1v1h-1zM463,342h1v1h-1zM566,342h2v1h-2zM625,342h1v1h-1zM671,342h1v1h-1zM761,342h4v1h-4zM788,342h1v1h-1zM236,343h1v1h-1zM261,343h5v1h-5zM355,343h1v1h-1zM463,343h1v1h-1zM565,343h2v1h-2zM624,343h1v1h-1zM671,343h2v1h-2zM762,343h3v1h-3zM789,343h1v1h-1zM235,344h1v1h-1zM260,344h5v1h-5zM354,344h1v1h-1zM463,344h1v1h-1zM564,344h2v1h-2zM623,344h1v1h-1zM672,344h2v1h-2zM762,344h4v1h-4zM789,344h1v1h-1zM235,345h1v1h-1zM259,345h6v1h-6zM354,345h1v1h-1zM463,345h1v1h-1zM564,345h1v1h-1zM622,345h1v1h-1zM673,345h1v1h-1zM763,345h4v1h-4zM790,345h1v1h-1zM234,346h1v1h-1zM259,346h5v1h-5zM353,346h1v1h-1zM463,346h1v1h-1zM563,346h1v1h-1zM621,346h1v1h-1zM674,346h1v1h-1zM763,346h4v1h-4zM790,346h1v1h-1zM234,347h1v1h-1zM258,347h5v1h-5zM352,347h1v1h-1zM463,347h1v1h-1zM562,347h1v1h-1zM620,347h1v1h-1zM675,347h1v1h-1zM764,347h4v1h-4zM791,347h1v1h-1zM233,348h1v1h-1zM258,348h5v1h-5zM351,348h1v1h-1zM463,348h1v1h-1zM561,348h1v1h-1zM619,348h1v1h-1zM676,348h1v1h-1zM764,348h4v1h-4zM791,348h2v1h-2zM257,349h5v1h-5zM350,349h1v1h-1zM463,349h1v1h-1zM560,349h1v1h-1zM618,349h1v1h-1zM676,349h2v1h-2zM765,349h4v1h-4zM792,349h1v1h-1zM232,350h1v1h-1zM256,350h6v1h-6zM350,350h1v1h-1zM463,350h1v1h-1zM559,350h1v1h-1zM617,350h1v1h-1zM677,350h1v1h-1zM766,350h4v1h-4zM792,350h2v1h-2zM256,351h5v1h-5zM349,351h1v1h-1zM463,351h1v1h-1zM558,351h1v1h-1zM616,351h1v1h-1zM678,351h1v1h-1zM766,351h4v1h-4zM793,351h1v1h-1zM231,352h1v1h-1zM255,352h6v1h-6zM348,352h1v1h-1zM463,352h1v1h-1zM557,352h1v1h-1zM615,352h1v1h-1zM679,352h1v1h-1zM767,352h4v1h-4zM793,352h2v1h-2zM230,353h1v1h-1zM255,353h5v1h-5zM463,353h1v1h-1zM556,353h1v1h-1zM614,353h1v1h-1zM679,353h2v1h-2zM767,353h4v1h-4zM794,353h1v1h-1zM230,354h1v1h-1zM254,354h5v1h-5zM347,354h1v1h-1zM463,354h1v1h-1zM555,354h1v1h-1zM613,354h1v1h-1zM680,354h1v1h-1zM768,354h4v1h-4zM794,354h2v1h-2zM229,355h1v1h-1zM254,355h5v1h-5zM346,355h1v1h-1zM463,355h1v1h-1zM554,355h1v1h-1zM612,355h1v1h-1zM681,355h1v1h-1zM768,355h4v1h-4zM795,355h1v1h-1zM229,356h1v1h-1zM253,356h5v1h-5zM345,356h1v1h-1zM463,356h1v1h-1zM553,356h1v1h-1zM611,356h1v1h-1zM682,356h1v1h-1zM769,356h4v1h-4zM795,356h2v1h-2zM228,357h1v1h-1zM252,357h6v1h-6zM345,357h1v1h-1zM463,357h1v1h-1zM552,357h1v1h-1zM610,357h2v1h-2zM682,357h1v1h-1zM769,357h4v1h-4zM796,357h1v1h-1zM228,358h1v1h-1zM252,358h5v1h-5zM344,358h1v1h-1zM463,358h1v1h-1zM551,358h2v1h-2zM609,358h2v1h-2zM683,358h1v1h-1zM770,358h4v1h-4zM796,358h2v1h-2zM227,359h1v1h-1zM251,359h6v1h-6zM343,359h1v1h-1zM463,359h1v1h-1zM550,359h2v1h-2zM609,359h1v1h-1zM684,359h1v1h-1zM771,359h3v1h-3zM797,359h1v1h-1zM227,360h1v1h-1zM251,360h5v1h-5zM343,360h1v1h-1zM463,360h1v1h-1zM549,360h2v1h-2zM608,360h1v1h-1zM684,360h1v1h-1zM771,360h4v1h-4zM797,360h2v1h-2zM250,361h6v1h-6zM342,361h1v1h-1zM463,361h1v1h-1zM549,361h1v1h-1zM607,361h1v1h-1zM685,361h1v1h-1zM772,361h3v1h-3zM798,361h1v1h-1zM226,362h1v1h-1zM250,362h5v1h-5zM463,362h1v1h-1zM548,362h1v1h-1zM606,362h1v1h-1zM686,362h1v1h-1zM772,362h4v1h-4zM798,362h2v1h-2zM226,363h1v1h-1zM249,363h5v1h-5zM341,363h1v1h-1zM463,363h1v1h-1zM547,363h1v1h-1zM605,363h1v1h-1zM686,363h1v1h-1zM773,363h3v1h-3zM799,363h1v1h-1zM225,364h1v1h-1zM249,364h5v1h-5zM340,364h1v1h-1zM463,364h1v1h-1zM546,364h1v1h-1zM604,364h1v1h-1zM687,364h1v1h-1zM773,364h4v1h-4zM799,364h1v1h-1zM225,365h1v1h-1zM248,365h5v1h-5zM463,365h1v1h-1zM545,365h1v1h-1zM603,365h1v1h-1zM687,365h2v1h-2zM774,365h3v1h-3zM800,365h1v1h-1zM224,366h1v1h-1zM248,366h5v1h-5zM339,366h1v1h-1zM463,366h1v1h-1zM544,366h1v1h-1zM602,366h1v1h-1zM688,366h1v1h-1zM774,366h4v1h-4zM800,366h1v1h-1zM224,367h1v1h-1zM247,367h5v1h-5zM338,367h1v1h-1zM463,367h1v1h-1zM543,367h1v1h-1zM601,367h1v1h-1zM689,367h1v1h-1zM775,367h3v1h-3zM801,367h1v1h-1zM223,368h1v1h-1zM247,368h5v1h-5zM338,368h1v1h-1zM463,368h1v1h-1zM542,368h1v1h-1zM600,368h1v1h-1zM689,368h1v1h-1zM775,368h4v1h-4zM801,368h1v1h-1zM223,369h1v1h-1zM246,369h6v1h-6zM337,369h1v1h-1zM463,369h1v1h-1zM541,369h1v1h-1zM599,369h1v1h-1zM690,369h1v1h-1zM775,369h4v1h-4zM802,369h1v1h-1zM246,370h5v1h-5zM336,370h1v1h-1zM463,370h1v1h-1zM540,370h1v1h-1zM598,370h1v1h-1zM690,370h1v1h-1zM776,370h4v1h-4zM802,370h1v1h-1zM222,371h1v1h-1zM245,371h6v1h-6zM336,371h1v1h-1zM463,371h1v1h-1zM539,371h1v1h-1zM597,371h1v1h-1zM691,371h1v1h-1zM776,371h4v1h-4zM802,371h1v1h-1zM222,372h1v1h-1zM245,372h5v1h-5zM335,372h1v1h-1zM463,372h1v1h-1zM538,372h1v1h-1zM596,372h1v1h-1zM692,372h1v1h-1zM777,372h4v1h-4zM803,372h1v1h-1zM221,373h1v1h-1zM245,373h5v1h-5zM335,373h1v1h-1zM463,373h1v1h-1zM537,373h1v1h-1zM595,373h1v1h-1zM692,373h1v1h-1zM777,373h4v1h-4zM803,373h1v1h-1zM221,374h1v1h-1zM244,374h5v1h-5zM334,374h1v1h-1zM463,374h1v1h-1zM536,374h1v1h-1zM594,374h1v1h-1zM693,374h1v1h-1zM778,374h4v1h-4zM804,374h1v1h-1zM220,375h1v1h-1zM244,375h5v1h-5zM334,375h1v1h-1zM463,375h1v1h-1zM535,375h2v1h-2zM593,375h1v1h-1zM693,375h1v1h-1zM778,375h4v1h-4zM804,375h1v1h-1zM220,376h1v1h-1zM243,376h5v1h-5zM333,376h1v1h-1zM463,376h1v1h-1zM534,376h1v1h-1zM592,376h2v1h-2zM694,376h1v1h-1zM779,376h4v1h-4zM805,376h1v1h-1zM220,377h1v1h-1zM243,377h5v1h-5zM332,377h2v1h-2zM463,377h1v1h-1zM533,377h1v1h-1zM591,377h2v1h-2zM694,377h1v1h-1zM779,377h4v1h-4zM805,377h1v1h-1zM219,378h1v1h-1zM242,378h5v1h-5zM332,378h1v1h-1zM463,378h1v1h-1zM532,378h1v1h-1zM590,378h2v1h-2zM695,378h1v1h-1zM780,378h3v1h-3zM805,378h2v1h-2zM219,379h1v1h-1zM242,379h5v1h-5zM331,379h2v1h-2zM463,379h1v1h-1zM531,379h2v1h-2zM589,379h2v1h-2zM695,379h1v1h-1zM780,379h4v1h-4zM806,379h1v1h-1zM218,380h2v1h-2zM242,380h5v1h-5zM331,380h1v1h-1zM463,380h1v1h-1zM530,380h2v1h-2zM589,380h1v1h-1zM696,380h1v1h-1zM780,380h4v1h-4zM806,380h1v1h-1zM218,381h1v1h-1zM241,381h5v1h-5zM330,381h1v1h-1zM463,381h1v1h-1zM530,381h1v1h-1zM588,381h1v1h-1zM696,381h1v1h-1zM781,381h4v1h-4zM806,381h2v1h-2zM218,382h1v1h-1zM241,382h5v1h-5zM330,382h1v1h-1zM463,382h1v1h-1zM529,382h1v1h-1zM587,382h1v1h-1zM697,382h1v1h-1zM781,382h4v1h-4zM807,382h1v1h-1zM217,383h1v1h-1zM240,383h5v1h-5zM329,383h2v1h-2zM463,383h1v1h-1zM528,383h1v1h-1zM586,383h1v1h-1zM697,383h1v1h-1zM782,383h4v1h-4zM807,383h1v1h-1zM217,384h1v1h-1zM240,384h5v1h-5zM329,384h1v1h-1zM463,384h1v1h-1zM527,384h1v1h-1zM585,384h1v1h-1zM698,384h1v1h-1zM782,384h4v1h-4zM807,384h2v1h-2zM216,385h2v1h-2zM239,385h6v1h-6zM328,385h1v1h-1zM463,385h1v1h-1zM526,385h1v1h-1zM584,385h1v1h-1zM698,385h1v1h-1zM782,385h4v1h-4zM808,385h1v1h-1zM216,386h1v1h-1zM239,386h5v1h-5zM328,386h1v1h-1zM463,386h1v1h-1zM525,386h1v1h-1zM583,386h1v1h-1zM699,386h1v1h-1zM783,386h4v1h-4zM808,386h1v1h-1zM216,387h1v1h-1zM239,387h5v1h-5zM463,387h1v1h-1zM524,387h1v1h-1zM582,387h1v1h-1zM699,387h1v1h-1zM783,387h4v1h-4zM808,387h2v1h-2zM238,388h5v1h-5zM327,388h1v1h-1zM463,388h1v1h-1zM523,388h1v1h-1zM581,388h1v1h-1zM700,388h1v1h-1zM784,388h3v1h-3zM809,388h1v1h-1zM215,389h1v1h-1zM238,389h5v1h-5zM327,389h1v1h-1zM463,389h1v1h-1zM522,389h1v1h-1zM580,389h1v1h-1zM700,389h1v1h-1zM784,389h4v1h-4zM809,389h1v1h-1zM215,390h1v1h-1zM237,390h6v1h-6zM326,390h1v1h-1zM463,390h1v1h-1zM521,390h1v1h-1zM579,390h1v1h-1zM701,390h1v1h-1zM784,390h4v1h-4zM810,390h1v1h-1zM215,391h1v1h-1zM237,391h5v1h-5zM326,391h1v1h-1zM463,391h1v1h-1zM520,391h1v1h-1zM578,391h1v1h-1zM701,391h1v1h-1zM785,391h4v1h-4zM810,391h1v1h-1zM214,392h1v1h-1zM237,392h5v1h-5zM325,392h1v1h-1zM463,392h1v1h-1zM519,392h1v1h-1zM577,392h1v1h-1zM701,392h2v1h-2zM785,392h4v1h-4zM810,392h1v1h-1zM214,393h1v1h-1zM236,393h5v1h-5zM325,393h1v1h-1zM463,393h1v1h-1zM518,393h1v1h-1zM576,393h1v1h-1zM702,393h1v1h-1zM785,393h4v1h-4zM810,393h2v1h-2zM213,394h1v1h-1zM236,394h5v1h-5zM325,394h1v1h-1zM463,394h1v1h-1zM517,394h1v1h-1zM575,394h1v1h-1zM702,394h1v1h-1zM786,394h4v1h-4zM811,394h1v1h-1zM213,395h1v1h-1zM236,395h5v1h-5zM324,395h1v1h-1zM463,395h1v1h-1zM516,395h1v1h-1zM574,395h1v1h-1zM703,395h1v1h-1zM786,395h4v1h-4zM811,395h1v1h-1zM213,396h1v1h-1zM235,396h5v1h-5zM324,396h1v1h-1zM463,396h1v1h-1zM515,396h2v1h-2zM573,396h1v1h-1zM703,396h1v1h-1zM787,396h3v1h-3zM812,396h1v1h-1zM213,397h1v1h-1zM235,397h5v1h-5zM463,397h1v1h-1zM514,397h2v1h-2zM572,397h1v1h-1zM703,397h1v1h-1zM787,397h4v1h-4zM812,397h1v1h-1zM212,398h1v1h-1zM234,398h6v1h-6zM323,398h1v1h-1zM463,398h1v1h-1zM513,398h2v1h-2zM571,398h2v1h-2zM704,398h1v1h-1zM787,398h4v1h-4zM812,398h1v1h-1zM212,399h1v1h-1zM234,399h5v1h-5zM323,399h1v1h-1zM463,399h1v1h-1zM512,399h2v1h-2zM570,399h2v1h-2zM704,399h1v1h-1zM788,399h3v1h-3zM812,399h2v1h-2zM212,400h1v1h-1zM234,400h5v1h-5zM322,400h1v1h-1zM463,400h1v1h-1zM512,400h1v1h-1zM569,400h2v1h-2zM705,400h1v1h-1zM788,400h4v1h-4zM813,400h1v1h-1zM211,401h1v1h-1zM233,401h6v1h-6zM322,401h1v1h-1zM463,401h1v1h-1zM511,401h1v1h-1zM568,401h2v1h-2zM705,401h1v1h-1zM788,401h4v1h-4zM813,401h1v1h-1zM211,402h1v1h-1zM233,402h5v1h-5zM322,402h1v1h-1zM463,402h1v1h-1zM510,402h1v1h-1zM568,402h1v1h-1zM705,402h1v1h-1zM789,402h3v1h-3zM813,402h2v1h-2zM211,403h1v1h-1zM233,403h5v1h-5zM321,403h1v1h-1zM463,403h1v1h-1zM509,403h1v1h-1zM567,403h1v1h-1zM706,403h1v1h-1zM789,403h4v1h-4zM814,403h1v1h-1zM233,404h5v1h-5zM321,404h1v1h-1zM463,404h1v1h-1zM508,404h1v1h-1zM566,404h1v1h-1zM706,404h1v1h-1zM789,404h4v1h-4zM814,404h1v1h-1zM210,405h1v1h-1zM232,405h5v1h-5zM321,405h1v1h-1zM463,405h1v1h-1zM507,405h1v1h-1zM565,405h1v1h-1zM706,405h1v1h-1zM790,405h3v1h-3zM814,405h1v1h-1zM210,406h1v1h-1zM232,406h5v1h-5zM320,406h1v1h-1zM463,406h1v1h-1zM506,406h1v1h-1zM564,406h1v1h-1zM707,406h1v1h-1zM790,406h4v1h-4zM814,406h2v1h-2zM210,407h1v1h-1zM231,407h6v1h-6zM320,407h1v1h-1zM463,407h1v1h-1zM505,407h1v1h-1zM563,407h1v1h-1zM707,407h1v1h-1zM790,407h4v1h-4zM815,407h1v1h-1zM209,408h1v1h-1zM231,408h5v1h-5zM320,408h1v1h-1zM463,408h1v1h-1zM504,408h1v1h-1zM562,408h1v1h-1zM707,408h1v1h-1zM790,408h4v1h-4zM815,408h1v1h-1zM209,409h1v1h-1zM231,409h5v1h-5zM319,409h1v1h-1zM463,409h1v1h-1zM503,409h1v1h-1zM561,409h1v1h-1zM791,409h3v1h-3zM815,409h2v1h-2zM209,410h1v1h-1zM231,410h5v1h-5zM319,410h1v1h-1zM463,410h1v1h-1zM502,410h1v1h-1zM560,410h1v1h-1zM708,410h1v1h-1zM791,410h4v1h-4zM816,410h1v1h-1zM209,411h1v1h-1zM230,411h6v1h-6zM319,411h1v1h-1zM463,411h1v1h-1zM501,411h1v1h-1zM559,411h1v1h-1zM708,411h1v1h-1zM791,411h4v1h-4zM816,411h1v1h-1zM208,412h1v1h-1zM230,412h5v1h-5zM319,412h1v1h-1zM463,412h1v1h-1zM500,412h1v1h-1zM558,412h1v1h-1zM708,412h1v1h-1zM792,412h3v1h-3zM816,412h1v1h-1zM208,413h1v1h-1zM230,413h5v1h-5zM318,413h1v1h-1zM463,413h1v1h-1zM499,413h1v1h-1zM557,413h1v1h-1zM709,413h1v1h-1zM792,413h4v1h-4zM816,413h2v1h-2zM208,414h1v1h-1zM230,414h5v1h-5zM318,414h1v1h-1zM463,414h1v1h-1zM498,414h2v1h-2zM556,414h1v1h-1zM709,414h1v1h-1zM792,414h4v1h-4zM817,414h1v1h-1zM229,415h5v1h-5zM318,415h1v1h-1zM463,415h1v1h-1zM497,415h2v1h-2zM555,415h1v1h-1zM709,415h1v1h-1zM792,415h4v1h-4zM817,415h1v1h-1zM207,416h1v1h-1zM229,416h5v1h-5zM317,416h1v1h-1zM463,416h1v1h-1zM496,416h2v1h-2zM554,416h1v1h-1zM710,416h1v1h-1zM793,416h3v1h-3zM817,416h1v1h-1zM207,417h1v1h-1zM229,417h5v1h-5zM317,417h1v1h-1zM463,417h1v1h-1zM496,417h1v1h-1zM553,417h1v1h-1zM710,417h1v1h-1zM793,417h4v1h-4zM817,417h2v1h-2zM207,418h1v1h-1zM228,418h5v1h-5zM317,418h1v1h-1zM463,418h1v1h-1zM495,418h1v1h-1zM552,418h1v1h-1zM710,418h1v1h-1zM793,418h4v1h-4zM818,418h1v1h-1zM207,419h1v1h-1zM228,419h5v1h-5zM317,419h1v1h-1zM463,419h1v1h-1zM494,419h1v1h-1zM551,419h2v1h-2zM710,419h1v1h-1zM793,419h4v1h-4zM818,419h1v1h-1zM206,420h1v1h-1zM228,420h5v1h-5zM316,420h1v1h-1zM463,420h1v1h-1zM493,420h1v1h-1zM550,420h2v1h-2zM711,420h1v1h-1zM794,420h3v1h-3zM818,420h1v1h-1zM206,421h1v1h-1zM228,421h5v1h-5zM316,421h1v1h-1zM463,421h1v1h-1zM492,421h1v1h-1zM549,421h2v1h-2zM711,421h1v1h-1zM794,421h4v1h-4zM818,421h1v1h-1zM206,422h1v1h-1zM228,422h4v1h-4zM316,422h1v1h-1zM463,422h1v1h-1zM491,422h1v1h-1zM548,422h2v1h-2zM711,422h1v1h-1zM794,422h4v1h-4zM818,422h2v1h-2zM206,423h1v1h-1zM227,423h5v1h-5zM316,423h1v1h-1zM463,423h1v1h-1zM490,423h1v1h-1zM547,423h2v1h-2zM711,423h1v1h-1zM794,423h4v1h-4zM819,423h1v1h-1zM205,424h1v1h-1zM227,424h5v1h-5zM316,424h1v1h-1zM463,424h1v1h-1zM489,424h1v1h-1zM547,424h1v1h-1zM711,424h2v1h-2zM795,424h3v1h-3zM819,424h1v1h-1zM205,425h1v1h-1zM227,425h5v1h-5zM315,425h1v1h-1zM463,425h1v1h-1zM488,425h1v1h-1zM546,425h1v1h-1zM712,425h1v1h-1zM795,425h4v1h-4zM819,425h1v1h-1zM205,426h1v1h-1zM227,426h4v1h-4zM315,426h1v1h-1zM463,426h1v1h-1zM487,426h2v1h-2zM545,426h1v1h-1zM712,426h1v1h-1zM795,426h4v1h-4zM819,426h1v1h-1zM205,427h1v1h-1zM226,427h5v1h-5zM315,427h1v1h-1zM463,427h1v1h-1zM486,427h2v1h-2zM544,427h1v1h-1zM712,427h1v1h-1zM795,427h4v1h-4zM820,427h1v1h-1zM205,428h1v1h-1zM226,428h5v1h-5zM315,428h1v1h-1zM463,428h1v1h-1zM485,428h2v1h-2zM543,428h1v1h-1zM712,428h1v1h-1zM795,428h4v1h-4zM820,428h1v1h-1zM204,429h1v1h-1zM226,429h5v1h-5zM315,429h1v1h-1zM463,429h1v1h-1zM485,429h1v1h-1zM542,429h1v1h-1zM713,429h1v1h-1zM796,429h3v1h-3zM820,429h1v1h-1zM204,430h1v1h-1zM226,430h5v1h-5zM314,430h1v1h-1zM463,430h1v1h-1zM484,430h1v1h-1zM541,430h1v1h-1zM713,430h1v1h-1zM796,430h4v1h-4zM820,430h1v1h-1zM204,431h1v1h-1zM225,431h5v1h-5zM314,431h1v1h-1zM463,431h1v1h-1zM483,431h1v1h-1zM540,431h1v1h-1zM713,431h1v1h-1zM796,431h4v1h-4zM820,431h1v1h-1zM204,432h1v1h-1zM225,432h5v1h-5zM314,432h1v1h-1zM463,432h1v1h-1zM482,432h1v1h-1zM539,432h1v1h-1zM713,432h1v1h-1zM796,432h4v1h-4zM821,432h1v1h-1zM204,433h1v1h-1zM225,433h5v1h-5zM314,433h1v1h-1zM463,433h1v1h-1zM481,433h1v1h-1zM538,433h1v1h-1zM713,433h1v1h-1zM797,433h3v1h-3zM821,433h1v1h-1zM204,434h1v1h-1zM225,434h5v1h-5zM314,434h1v1h-1zM463,434h1v1h-1zM480,434h1v1h-1zM537,434h1v1h-1zM713,434h1v1h-1zM797,434h3v1h-3zM821,434h1v1h-1zM203,435h1v1h-1zM225,435h5v1h-5zM463,435h1v1h-1zM479,435h1v1h-1zM536,435h1v1h-1zM714,435h1v1h-1zM797,435h4v1h-4zM821,435h1v1h-1zM203,436h1v1h-1zM225,436h4v1h-4zM313,436h1v1h-1zM463,436h1v1h-1zM478,436h1v1h-1zM535,436h1v1h-1zM714,436h1v1h-1zM797,436h4v1h-4zM821,436h1v1h-1zM203,437h1v1h-1zM224,437h5v1h-5zM313,437h1v1h-1zM463,437h1v1h-1zM477,437h1v1h-1zM534,437h1v1h-1zM714,437h1v1h-1zM797,437h4v1h-4zM821,437h2v1h-2zM203,438h1v1h-1zM224,438h5v1h-5zM313,438h1v1h-1zM463,438h1v1h-1zM476,438h1v1h-1zM533,438h1v1h-1zM714,438h1v1h-1zM798,438h3v1h-3zM822,438h1v1h-1zM203,439h1v1h-1zM224,439h5v1h-5zM313,439h1v1h-1zM463,439h1v1h-1zM475,439h2v1h-2zM532,439h1v1h-1zM714,439h1v1h-1zM798,439h4v1h-4zM822,439h1v1h-1zM203,440h1v1h-1zM224,440h5v1h-5zM313,440h1v1h-1zM463,440h1v1h-1zM474,440h2v1h-2zM531,440h1v1h-1zM714,440h1v1h-1zM798,440h4v1h-4zM822,440h1v1h-1zM202,441h1v1h-1zM224,441h4v1h-4zM313,441h1v1h-1zM463,441h1v1h-1zM473,441h2v1h-2zM530,441h1v1h-1zM715,441h1v1h-1zM798,441h4v1h-4zM822,441h1v1h-1zM202,442h1v1h-1zM223,442h5v1h-5zM463,442h1v1h-1zM473,442h1v1h-1zM529,442h2v1h-2zM715,442h1v1h-1zM798,442h4v1h-4zM822,442h1v1h-1zM202,443h1v1h-1zM223,443h5v1h-5zM312,443h1v1h-1zM463,443h1v1h-1zM471,443h2v1h-2zM528,443h2v1h-2zM715,443h1v1h-1zM798,443h4v1h-4zM822,443h2v1h-2zM202,444h1v1h-1zM223,444h5v1h-5zM312,444h1v1h-1zM463,444h1v1h-1zM470,444h2v1h-2zM527,444h2v1h-2zM715,444h1v1h-1zM799,444h3v1h-3zM823,444h1v1h-1zM202,445h1v1h-1zM223,445h5v1h-5zM312,445h1v1h-1zM463,445h1v1h-1zM470,445h1v1h-1zM526,445h2v1h-2zM715,445h1v1h-1zM799,445h3v1h-3zM823,445h1v1h-1zM202,446h1v1h-1zM223,446h5v1h-5zM312,446h1v1h-1zM463,446h1v1h-1zM469,446h1v1h-1zM525,446h2v1h-2zM715,446h1v1h-1zM799,446h4v1h-4zM823,446h1v1h-1zM202,447h1v1h-1zM223,447h4v1h-4zM312,447h1v1h-1zM463,447h1v1h-1zM468,447h1v1h-1zM524,447h2v1h-2zM715,447h1v1h-1zM799,447h4v1h-4zM823,447h1v1h-1zM201,448h1v1h-1zM222,448h5v1h-5zM312,448h1v1h-1zM463,448h1v1h-1zM467,448h1v1h-1zM523,448h2v1h-2zM715,448h1v1h-1zM799,448h4v1h-4zM823,448h1v1h-1zM201,449h1v1h-1zM222,449h5v1h-5zM312,449h1v1h-1zM463,449h1v1h-1zM466,449h1v1h-1zM523,449h1v1h-1zM715,449h1v1h-1zM799,449h4v1h-4zM823,449h1v1h-1zM201,450h1v1h-1zM222,450h5v1h-5zM312,450h1v1h-1zM463,450h1v1h-1zM465,450h2v1h-2zM522,450h1v1h-1zM799,450h4v1h-4zM823,450h1v1h-1zM201,451h1v1h-1zM222,451h5v1h-5zM312,451h1v1h-1zM463,451h3v1h-3zM521,451h1v1h-1zM799,451h4v1h-4zM823,451h2v1h-2zM201,452h1v1h-1zM222,452h5v1h-5zM312,452h1v1h-1zM463,452h2v1h-2zM520,452h1v1h-1zM716,452h1v1h-1zM800,452h3v1h-3zM824,452h1v1h-1zM201,453h1v1h-1zM222,453h5v1h-5zM312,453h1v1h-1zM519,453h1v1h-1zM716,453h1v1h-1zM800,453h4v1h-4zM824,453h1v1h-1zM222,454h4v1h-4zM311,454h1v1h-1zM518,454h1v1h-1zM716,454h1v1h-1zM800,454h4v1h-4zM824,454h1v1h-1zM222,455h4v1h-4zM311,455h1v1h-1zM517,455h1v1h-1zM716,455h1v1h-1zM800,455h4v1h-4zM824,455h1v1h-1zM200,456h1v1h-1zM222,456h4v1h-4zM311,456h1v1h-1zM516,456h1v1h-1zM716,456h1v1h-1zM800,456h4v1h-4zM824,456h1v1h-1zM200,457h1v1h-1zM221,457h5v1h-5zM311,457h1v1h-1zM515,457h1v1h-1zM716,457h1v1h-1zM800,457h4v1h-4zM824,457h1v1h-1zM200,458h1v1h-1zM221,458h5v1h-5zM311,458h1v1h-1zM514,458h1v1h-1zM530,458h2v1h-2zM716,458h1v1h-1zM800,458h4v1h-4zM824,458h1v1h-1zM200,459h1v1h-1zM221,459h5v1h-5zM311,459h1v1h-1zM513,459h1v1h-1zM529,459h1v1h-1zM716,459h1v1h-1zM800,459h4v1h-4zM824,459h2v1h-2zM200,460h1v1h-1zM221,460h5v1h-5zM311,460h1v1h-1zM512,460h1v1h-1zM528,460h1v1h-1zM532,460h1v1h-1zM716,460h1v1h-1zM801,460h3v1h-3zM825,460h1v1h-1zM200,461h1v1h-1zM221,461h5v1h-5zM311,461h1v1h-1zM511,461h1v1h-1zM527,461h1v1h-1zM533,461h1v1h-1zM716,461h1v1h-1zM801,461h3v1h-3zM825,461h1v1h-1zM200,462h1v1h-1zM221,462h5v1h-5zM311,462h1v1h-1zM510,462h1v1h-1zM526,462h1v1h-1zM534,462h1v1h-1zM716,462h1v1h-1zM801,462h4v1h-4zM825,462h1v1h-1zM200,463h1v1h-1zM221,463h5v1h-5zM311,463h1v1h-1zM509,463h1v1h-1zM525,463h2v1h-2zM535,463h1v1h-1zM716,463h1v1h-1zM801,463h4v1h-4zM825,463h1v1h-1zM200,464h1v1h-1zM221,464h4v1h-4zM311,464h1v1h-1zM508,464h1v1h-1zM524,464h2v1h-2zM536,464h1v1h-1zM716,464h1v1h-1zM801,464h4v1h-4zM825,464h1v1h-1zM200,465h1v1h-1zM221,465h4v1h-4zM311,465h1v1h-1zM507,465h1v1h-1zM523,465h2v1h-2zM537,465h1v1h-1zM716,465h1v1h-1zM801,465h4v1h-4zM825,465h1v1h-1zM220,466h5v1h-5zM311,466h1v1h-1zM506,466h1v1h-1zM522,466h2v1h-2zM538,466h1v1h-1zM716,466h1v1h-1zM801,466h4v1h-4zM825,466h1v1h-1zM220,467h5v1h-5zM311,467h1v1h-1zM505,467h2v1h-2zM522,467h1v1h-1zM539,467h1v1h-1zM716,467h1v1h-1zM801,467h4v1h-4zM825,467h1v1h-1zM220,468h5v1h-5zM311,468h1v1h-1zM505,468h1v1h-1zM521,468h1v1h-1zM540,468h1v1h-1zM716,468h1v1h-1zM801,468h4v1h-4zM825,468h1v1h-1zM220,469h5v1h-5zM311,469h1v1h-1zM504,469h1v1h-1zM520,469h1v1h-1zM540,469h2v1h-2zM716,469h1v1h-1zM801,469h4v1h-4zM825,469h1v1h-1zM199,470h1v1h-1zM220,470h5v1h-5zM311,470h1v1h-1zM503,470h1v1h-1zM519,470h1v1h-1zM541,470h2v1h-2zM716,470h1v1h-1zM802,470h3v1h-3zM825,470h1v1h-1zM199,471h1v1h-1zM220,471h5v1h-5zM311,471h1v1h-1zM502,471h1v1h-1zM518,471h1v1h-1zM542,471h2v1h-2zM716,471h1v1h-1zM802,471h3v1h-3zM825,471h1v1h-1zM199,472h1v1h-1zM220,472h5v1h-5zM311,472h1v1h-1zM501,472h1v1h-1zM517,472h1v1h-1zM543,472h2v1h-2zM716,472h1v1h-1zM802,472h3v1h-3zM825,472h2v1h-2zM199,473h1v1h-1zM220,473h5v1h-5zM311,473h1v1h-1zM500,473h1v1h-1zM516,473h1v1h-1zM544,473h2v1h-2zM716,473h1v1h-1zM802,473h3v1h-3zM825,473h2v1h-2zM199,474h1v1h-1zM220,474h5v1h-5zM311,474h1v1h-1zM499,474h1v1h-1zM515,474h1v1h-1zM545,474h1v1h-1zM716,474h1v1h-1zM802,474h3v1h-3zM825,474h2v1h-2zM199,475h1v1h-1zM220,475h5v1h-5zM311,475h1v1h-1zM498,475h1v1h-1zM514,475h1v1h-1zM546,475h1v1h-1zM716,475h1v1h-1zM802,475h3v1h-3zM825,475h2v1h-2zM199,476h1v1h-1zM220,476h5v1h-5zM311,476h1v1h-1zM497,476h1v1h-1zM513,476h1v1h-1zM547,476h1v1h-1zM716,476h1v1h-1zM802,476h3v1h-3zM826,476h1v1h-1zM199,477h1v1h-1zM220,477h5v1h-5zM311,477h1v1h-1zM496,477h1v1h-1zM512,477h1v1h-1zM548,477h1v1h-1zM716,477h1v1h-1zM802,477h4v1h-4zM826,477h1v1h-1zM199,478h1v1h-1zM220,478h5v1h-5zM495,478h1v1h-1zM511,478h2v1h-2zM549,478h1v1h-1zM716,478h1v1h-1zM802,478h4v1h-4zM826,478h1v1h-1zM199,479h1v1h-1zM220,479h5v1h-5zM494,479h1v1h-1zM510,479h2v1h-2zM550,479h1v1h-1zM715,479h1v1h-1zM802,479h4v1h-4zM826,479h1v1h-1zM199,480h1v1h-1zM220,480h5v1h-5zM312,480h1v1h-1zM493,480h1v1h-1zM509,480h2v1h-2zM551,480h1v1h-1zM802,480h4v1h-4zM826,480h1v1h-1zM199,481h1v1h-1zM220,481h5v1h-5zM312,481h1v1h-1zM492,481h1v1h-1zM508,481h2v1h-2zM552,481h1v1h-1zM715,481h1v1h-1zM802,481h4v1h-4zM826,481h1v1h-1zM199,482h1v1h-1zM220,482h4v1h-4zM312,482h1v1h-1zM491,482h2v1h-2zM508,482h1v1h-1zM553,482h1v1h-1zM715,482h1v1h-1zM802,482h4v1h-4zM826,482h1v1h-1zM199,483h1v1h-1zM220,483h4v1h-4zM312,483h1v1h-1zM490,483h2v1h-2zM507,483h1v1h-1zM554,483h1v1h-1zM715,483h1v1h-1zM802,483h4v1h-4zM826,483h1v1h-1zM199,484h1v1h-1zM220,484h4v1h-4zM312,484h1v1h-1zM489,484h2v1h-2zM506,484h1v1h-1zM555,484h1v1h-1zM715,484h1v1h-1zM802,484h4v1h-4zM826,484h1v1h-1zM199,485h1v1h-1zM220,485h4v1h-4zM312,485h1v1h-1zM488,485h2v1h-2zM505,485h1v1h-1zM556,485h1v1h-1zM715,485h1v1h-1zM802,485h4v1h-4zM826,485h1v1h-1zM199,486h1v1h-1zM220,486h4v1h-4zM312,486h1v1h-1zM488,486h1v1h-1zM504,486h1v1h-1zM557,486h1v1h-1zM715,486h1v1h-1zM802,486h4v1h-4zM826,486h1v1h-1zM199,487h1v1h-1zM220,487h4v1h-4zM312,487h1v1h-1zM487,487h1v1h-1zM503,487h1v1h-1zM557,487h2v1h-2zM715,487h1v1h-1zM802,487h4v1h-4zM826,487h1v1h-1zM199,488h1v1h-1zM220,488h4v1h-4zM312,488h1v1h-1zM485,488h2v1h-2zM502,488h1v1h-1zM558,488h1v1h-1zM715,488h1v1h-1zM802,488h4v1h-4zM826,488h1v1h-1zM199,489h1v1h-1zM220,489h4v1h-4zM312,489h1v1h-1zM485,489h1v1h-1zM501,489h1v1h-1zM559,489h1v1h-1zM715,489h1v1h-1zM802,489h4v1h-4zM826,489h1v1h-1zM199,490h1v1h-1zM220,490h4v1h-4zM312,490h1v1h-1zM484,490h1v1h-1zM500,490h1v1h-1zM560,490h1v1h-1zM714,490h1v1h-1zM802,490h4v1h-4zM826,490h1v1h-1zM199,491h1v1h-1zM220,491h4v1h-4zM313,491h1v1h-1zM483,491h1v1h-1zM499,491h1v1h-1zM561,491h1v1h-1zM714,491h1v1h-1zM802,491h4v1h-4zM826,491h1v1h-1zM199,492h1v1h-1zM220,492h4v1h-4zM313,492h1v1h-1zM482,492h1v1h-1zM498,492h1v1h-1zM562,492h1v1h-1zM714,492h1v1h-1zM802,492h4v1h-4zM826,492h1v1h-1zM199,493h1v1h-1zM220,493h4v1h-4zM313,493h1v1h-1zM481,493h1v1h-1zM497,493h1v1h-1zM563,493h1v1h-1zM714,493h1v1h-1zM802,493h4v1h-4zM826,493h1v1h-1zM199,494h1v1h-1zM220,494h4v1h-4zM313,494h1v1h-1zM480,494h1v1h-1zM496,494h1v1h-1zM564,494h1v1h-1zM714,494h1v1h-1zM802,494h4v1h-4zM826,494h1v1h-1zM199,495h1v1h-1zM220,495h4v1h-4zM313,495h1v1h-1zM479,495h1v1h-1zM495,495h2v1h-2zM565,495h1v1h-1zM714,495h1v1h-1zM802,495h4v1h-4zM826,495h1v1h-1zM199,496h1v1h-1zM220,496h5v1h-5zM313,496h1v1h-1zM478,496h1v1h-1zM496,496h1v1h-1zM566,496h1v1h-1zM713,496h1v1h-1zM802,496h4v1h-4zM826,496h1v1h-1zM199,497h1v1h-1zM220,497h5v1h-5zM313,497h1v1h-1zM477,497h1v1h-1zM497,497h1v1h-1zM567,497h1v1h-1zM713,497h1v1h-1zM802,497h4v1h-4zM826,497h1v1h-1zM199,498h1v1h-1zM220,498h5v1h-5zM313,498h1v1h-1zM476,498h1v1h-1zM498,498h1v1h-1zM568,498h1v1h-1zM713,498h1v1h-1zM802,498h4v1h-4zM826,498h1v1h-1zM199,499h1v1h-1zM220,499h5v1h-5zM314,499h1v1h-1zM476,499h1v1h-1zM499,499h1v1h-1zM568,499h2v1h-2zM713,499h1v1h-1zM802,499h4v1h-4zM826,499h1v1h-1zM199,500h1v1h-1zM220,500h5v1h-5zM314,500h1v1h-1zM474,500h2v1h-2zM500,500h1v1h-1zM569,500h2v1h-2zM713,500h1v1h-1zM802,500h4v1h-4zM826,500h1v1h-1zM199,501h1v1h-1zM220,501h5v1h-5zM314,501h1v1h-1zM473,501h2v1h-2zM501,501h1v1h-1zM570,501h1v1h-1zM713,501h1v1h-1zM802,501h4v1h-4zM826,501h1v1h-1zM199,502h1v1h-1zM220,502h5v1h-5zM314,502h1v1h-1zM472,502h2v1h-2zM502,502h1v1h-1zM571,502h1v1h-1zM712,502h1v1h-1zM802,502h4v1h-4zM826,502h1v1h-1zM199,503h1v1h-1zM220,503h5v1h-5zM314,503h1v1h-1zM472,503h1v1h-1zM503,503h1v1h-1zM572,503h1v1h-1zM712,503h1v1h-1zM802,503h4v1h-4zM826,503h1v1h-1zM199,504h1v1h-1zM220,504h5v1h-5zM471,504h1v1h-1zM503,504h2v1h-2zM573,504h1v1h-1zM712,504h1v1h-1zM802,504h3v1h-3zM825,504h2v1h-2zM199,505h1v1h-1zM220,505h5v1h-5zM315,505h1v1h-1zM470,505h1v1h-1zM505,505h1v1h-1zM574,505h1v1h-1zM712,505h1v1h-1zM801,505h4v1h-4zM825,505h1v1h-1zM199,506h1v1h-1zM220,506h5v1h-5zM315,506h1v1h-1zM469,506h1v1h-1zM505,506h2v1h-2zM575,506h1v1h-1zM711,506h2v1h-2zM801,506h4v1h-4zM825,506h1v1h-1zM199,507h1v1h-1zM220,507h5v1h-5zM315,507h1v1h-1zM468,507h1v1h-1zM506,507h2v1h-2zM576,507h1v1h-1zM711,507h1v1h-1zM801,507h4v1h-4zM825,507h1v1h-1zM199,508h1v1h-1zM220,508h5v1h-5zM315,508h1v1h-1zM467,508h1v1h-1zM507,508h1v1h-1zM577,508h1v1h-1zM711,508h1v1h-1zM801,508h4v1h-4zM825,508h1v1h-1zM199,509h1v1h-1zM220,509h5v1h-5zM466,509h1v1h-1zM508,509h1v1h-1zM578,509h1v1h-1zM711,509h1v1h-1zM801,509h4v1h-4zM825,509h1v1h-1zM199,510h1v1h-1zM220,510h5v1h-5zM316,510h1v1h-1zM465,510h1v1h-1zM509,510h1v1h-1zM579,510h1v1h-1zM711,510h1v1h-1zM801,510h4v1h-4zM825,510h1v1h-1zM220,511h5v1h-5zM316,511h1v1h-1zM464,511h1v1h-1zM510,511h1v1h-1zM580,511h1v1h-1zM710,511h2v1h-2zM801,511h4v1h-4zM825,511h1v1h-1zM199,512h1v1h-1zM221,512h4v1h-4zM316,512h1v1h-1zM463,512h2v1h-2zM511,512h1v1h-1zM580,512h2v1h-2zM710,512h1v1h-1zM801,512h4v1h-4zM825,512h1v1h-1zM221,513h4v1h-4zM463,513h1v1h-1zM512,513h1v1h-1zM581,513h2v1h-2zM710,513h1v1h-1zM801,513h4v1h-4zM825,513h1v1h-1zM200,514h1v1h-1zM221,514h4v1h-4zM317,514h1v1h-1zM463,514h1v1h-1zM513,514h1v1h-1zM582,514h1v1h-1zM710,514h1v1h-1zM801,514h4v1h-4zM825,514h1v1h-1zM200,515h1v1h-1zM221,515h5v1h-5zM317,515h1v1h-1zM463,515h1v1h-1zM514,515h1v1h-1zM583,515h1v1h-1zM709,515h1v1h-1zM801,515h4v1h-4zM825,515h1v1h-1zM200,516h1v1h-1zM221,516h5v1h-5zM317,516h1v1h-1zM463,516h1v1h-1zM515,516h1v1h-1zM584,516h1v1h-1zM709,516h1v1h-1zM801,516h4v1h-4zM825,516h1v1h-1zM200,517h1v1h-1zM221,517h5v1h-5zM318,517h1v1h-1zM463,517h1v1h-1zM516,517h1v1h-1zM585,517h1v1h-1zM709,517h1v1h-1zM801,517h4v1h-4zM825,517h1v1h-1zM200,518h1v1h-1zM221,518h5v1h-5zM318,518h1v1h-1zM463,518h1v1h-1zM517,518h1v1h-1zM586,518h1v1h-1zM708,518h1v1h-1zM800,518h4v1h-4zM824,518h2v1h-2zM200,519h1v1h-1zM221,519h5v1h-5zM318,519h1v1h-1zM463,519h1v1h-1zM518,519h1v1h-1zM587,519h1v1h-1zM708,519h1v1h-1zM800,519h4v1h-4zM824,519h2v1h-2zM200,520h1v1h-1zM221,520h5v1h-5zM318,520h1v1h-1zM463,520h1v1h-1zM519,520h1v1h-1zM588,520h1v1h-1zM708,520h1v1h-1zM800,520h4v1h-4zM824,520h2v1h-2zM200,521h1v1h-1zM221,521h5v1h-5zM319,521h1v1h-1zM463,521h1v1h-1zM520,521h1v1h-1zM589,521h1v1h-1zM708,521h1v1h-1zM800,521h4v1h-4zM824,521h1v1h-1zM200,522h1v1h-1zM221,522h5v1h-5zM319,522h1v1h-1zM463,522h1v1h-1zM521,522h1v1h-1zM590,522h1v1h-1zM707,522h1v1h-1zM800,522h4v1h-4zM824,522h1v1h-1zM200,523h1v1h-1zM222,523h4v1h-4zM319,523h1v1h-1zM463,523h1v1h-1zM522,523h1v1h-1zM591,523h1v1h-1zM707,523h1v1h-1zM800,523h4v1h-4zM824,523h1v1h-1zM222,524h4v1h-4zM319,524h1v1h-1zM463,524h1v1h-1zM523,524h1v1h-1zM592,524h1v1h-1zM707,524h1v1h-1zM800,524h4v1h-4zM824,524h1v1h-1zM201,525h1v1h-1zM222,525h5v1h-5zM320,525h1v1h-1zM463,525h1v1h-1zM524,525h1v1h-1zM592,525h2v1h-2zM706,525h1v1h-1zM800,525h4v1h-4zM824,525h1v1h-1zM201,526h1v1h-1zM222,526h5v1h-5zM320,526h1v1h-1zM463,526h1v1h-1zM525,526h1v1h-1zM593,526h2v1h-2zM706,526h1v1h-1zM799,526h5v1h-5zM824,526h1v1h-1zM201,527h1v1h-1zM222,527h5v1h-5zM320,527h1v1h-1zM463,527h1v1h-1zM526,527h1v1h-1zM594,527h2v1h-2zM706,527h1v1h-1zM799,527h4v1h-4zM823,527h2v1h-2zM201,528h1v1h-1zM222,528h5v1h-5zM321,528h1v1h-1zM463,528h1v1h-1zM526,528h2v1h-2zM595,528h1v1h-1zM705,528h1v1h-1zM799,528h4v1h-4zM823,528h2v1h-2zM201,529h1v1h-1zM222,529h5v1h-5zM321,529h1v1h-1zM463,529h1v1h-1zM527,529h2v1h-2zM596,529h1v1h-1zM705,529h1v1h-1zM799,529h4v1h-4zM823,529h1v1h-1zM201,530h1v1h-1zM222,530h5v1h-5zM321,530h1v1h-1zM463,530h1v1h-1zM528,530h2v1h-2zM597,530h1v1h-1zM705,530h1v1h-1zM799,530h4v1h-4zM823,530h1v1h-1zM201,531h1v1h-1zM223,531h4v1h-4zM322,531h1v1h-1zM463,531h1v1h-1zM530,531h1v1h-1zM598,531h1v1h-1zM704,531h1v1h-1zM799,531h4v1h-4zM823,531h1v1h-1zM201,532h1v1h-1zM223,532h5v1h-5zM322,532h1v1h-1zM463,532h1v1h-1zM530,532h2v1h-2zM599,532h1v1h-1zM704,532h1v1h-1zM799,532h4v1h-4zM823,532h1v1h-1zM223,533h5v1h-5zM322,533h1v1h-1zM463,533h1v1h-1zM531,533h1v1h-1zM600,533h1v1h-1zM704,533h1v1h-1zM799,533h4v1h-4zM823,533h1v1h-1zM202,534h1v1h-1zM223,534h5v1h-5zM323,534h1v1h-1zM463,534h1v1h-1zM532,534h1v1h-1zM601,534h1v1h-1zM703,534h1v1h-1zM798,534h4v1h-4zM823,534h1v1h-1zM202,535h1v1h-1zM223,535h5v1h-5zM323,535h1v1h-1zM463,535h1v1h-1zM533,535h1v1h-1zM602,535h1v1h-1zM703,535h1v1h-1zM798,535h4v1h-4zM822,535h2v1h-2zM202,536h1v1h-1zM223,536h5v1h-5zM323,536h1v1h-1zM463,536h1v1h-1zM534,536h1v1h-1zM603,536h1v1h-1zM703,536h1v1h-1zM798,536h4v1h-4zM822,536h1v1h-1zM202,537h1v1h-1zM223,537h5v1h-5zM324,537h1v1h-1zM463,537h1v1h-1zM535,537h1v1h-1zM604,537h1v1h-1zM702,537h1v1h-1zM798,537h4v1h-4zM822,537h1v1h-1zM202,538h1v1h-1zM224,538h4v1h-4zM324,538h1v1h-1zM463,538h1v1h-1zM536,538h1v1h-1zM604,538h2v1h-2zM702,538h1v1h-1zM798,538h4v1h-4zM822,538h1v1h-1zM202,539h1v1h-1zM224,539h5v1h-5zM324,539h1v1h-1zM463,539h1v1h-1zM537,539h1v1h-1zM605,539h2v1h-2zM701,539h1v1h-1zM798,539h4v1h-4zM822,539h1v1h-1zM203,540h1v1h-1zM224,540h5v1h-5zM325,540h1v1h-1zM463,540h1v1h-1zM538,540h1v1h-1zM606,540h2v1h-2zM701,540h1v1h-1zM798,540h4v1h-4zM822,540h1v1h-1zM203,541h1v1h-1zM224,541h5v1h-5zM325,541h1v1h-1zM463,541h1v1h-1zM539,541h1v1h-1zM607,541h1v1h-1zM701,541h1v1h-1zM797,541h4v1h-4zM822,541h1v1h-1zM203,542h1v1h-1zM224,542h5v1h-5zM326,542h1v1h-1zM463,542h1v1h-1zM540,542h1v1h-1zM608,542h1v1h-1zM700,542h1v1h-1zM797,542h4v1h-4zM821,542h1v1h-1zM203,543h1v1h-1zM225,543h4v1h-4zM326,543h1v1h-1zM463,543h1v1h-1zM541,543h1v1h-1zM609,543h1v1h-1zM700,543h1v1h-1zM797,543h4v1h-4zM821,543h1v1h-1zM203,544h1v1h-1zM225,544h4v1h-4zM326,544h1v1h-1zM463,544h1v1h-1zM542,544h1v1h-1zM610,544h1v1h-1zM699,544h1v1h-1zM797,544h4v1h-4zM821,544h1v1h-1zM203,545h1v1h-1zM225,545h5v1h-5zM327,545h1v1h-1zM463,545h1v1h-1zM543,545h1v1h-1zM611,545h1v1h-1zM699,545h1v1h-1zM797,545h4v1h-4zM821,545h1v1h-1zM204,546h1v1h-1zM225,546h5v1h-5zM327,546h1v1h-1zM463,546h1v1h-1zM544,546h1v1h-1zM612,546h1v1h-1zM698,546h1v1h-1zM796,546h4v1h-4zM821,546h1v1h-1zM204,547h1v1h-1zM225,547h5v1h-5zM327,547h1v1h-1zM463,547h1v1h-1zM545,547h1v1h-1zM612,547h2v1h-2zM698,547h1v1h-1zM796,547h4v1h-4zM820,547h1v1h-1zM204,548h1v1h-1zM225,548h5v1h-5zM328,548h1v1h-1zM463,548h1v1h-1zM546,548h1v1h-1zM613,548h2v1h-2zM697,548h2v1h-2zM796,548h4v1h-4zM820,548h1v1h-1zM204,549h1v1h-1zM226,549h4v1h-4zM328,549h1v1h-1zM463,549h1v1h-1zM547,549h1v1h-1zM614,549h2v1h-2zM697,549h1v1h-1zM796,549h4v1h-4zM820,549h1v1h-1zM204,550h1v1h-1zM226,550h5v1h-5zM329,550h1v1h-1zM463,550h1v1h-1zM548,550h1v1h-1zM615,550h2v1h-2zM696,550h2v1h-2zM795,550h5v1h-5zM820,550h1v1h-1zM204,551h1v1h-1zM226,551h5v1h-5zM329,551h1v1h-1zM463,551h1v1h-1zM549,551h1v1h-1zM616,551h2v1h-2zM696,551h1v1h-1zM795,551h4v1h-4zM820,551h1v1h-1zM205,552h1v1h-1zM226,552h5v1h-5zM330,552h1v1h-1zM463,552h1v1h-1zM550,552h1v1h-1zM617,552h1v1h-1zM695,552h2v1h-2zM795,552h4v1h-4zM819,552h2v1h-2zM205,553h1v1h-1zM227,553h4v1h-4zM330,553h1v1h-1zM463,553h1v1h-1zM551,553h1v1h-1zM618,553h1v1h-1zM695,553h1v1h-1zM795,553h4v1h-4zM819,553h1v1h-1zM205,554h1v1h-1zM227,554h4v1h-4zM330,554h2v1h-2zM463,554h1v1h-1zM552,554h1v1h-1zM619,554h1v1h-1zM694,554h2v1h-2zM795,554h4v1h-4zM819,554h1v1h-1zM205,555h1v1h-1zM227,555h5v1h-5zM331,555h1v1h-1zM463,555h1v1h-1zM553,555h1v1h-1zM620,555h1v1h-1zM694,555h1v1h-1zM794,555h5v1h-5zM819,555h1v1h-1zM205,556h1v1h-1zM227,556h5v1h-5zM331,556h2v1h-2zM463,556h1v1h-1zM554,556h1v1h-1zM621,556h1v1h-1zM693,556h2v1h-2zM794,556h4v1h-4zM819,556h1v1h-1zM206,557h1v1h-1zM227,557h5v1h-5zM332,557h1v1h-1zM463,557h1v1h-1zM555,557h1v1h-1zM622,557h1v1h-1zM693,557h1v1h-1zM794,557h4v1h-4zM818,557h1v1h-1zM206,558h1v1h-1zM228,558h4v1h-4zM333,558h1v1h-1zM463,558h1v1h-1zM556,558h1v1h-1zM623,558h1v1h-1zM692,558h2v1h-2zM794,558h4v1h-4zM818,558h1v1h-1zM206,559h1v1h-1zM228,559h5v1h-5zM333,559h1v1h-1zM463,559h1v1h-1zM557,559h1v1h-1zM624,559h1v1h-1zM692,559h1v1h-1zM793,559h5v1h-5zM818,559h1v1h-1zM206,560h1v1h-1zM228,560h5v1h-5zM334,560h1v1h-1zM463,560h1v1h-1zM558,560h1v1h-1zM625,560h1v1h-1zM691,560h1v1h-1zM793,560h4v1h-4zM818,560h1v1h-1zM207,561h1v1h-1zM228,561h5v1h-5zM334,561h1v1h-1zM463,561h1v1h-1zM559,561h1v1h-1zM625,561h2v1h-2zM691,561h1v1h-1zM793,561h4v1h-4zM817,561h2v1h-2zM207,562h1v1h-1zM228,562h5v1h-5zM335,562h1v1h-1zM463,562h1v1h-1zM560,562h1v1h-1zM626,562h2v1h-2zM690,562h1v1h-1zM793,562h4v1h-4zM817,562h1v1h-1zM207,563h1v1h-1zM229,563h5v1h-5zM335,563h1v1h-1zM463,563h1v1h-1zM561,563h1v1h-1zM627,563h2v1h-2zM689,563h2v1h-2zM792,563h5v1h-5zM817,563h1v1h-1zM207,564h1v1h-1zM229,564h5v1h-5zM336,564h1v1h-1zM463,564h1v1h-1zM562,564h1v1h-1zM628,564h1v1h-1zM689,564h1v1h-1zM792,564h4v1h-4zM817,564h1v1h-1zM229,565h5v1h-5zM336,565h1v1h-1zM463,565h1v1h-1zM563,565h1v1h-1zM629,565h1v1h-1zM689,565h1v1h-1zM792,565h4v1h-4zM816,565h2v1h-2zM208,566h1v1h-1zM230,566h4v1h-4zM337,566h1v1h-1zM463,566h1v1h-1zM564,566h1v1h-1zM630,566h1v1h-1zM688,566h1v1h-1zM792,566h4v1h-4zM816,566h1v1h-1zM208,567h1v1h-1zM230,567h5v1h-5zM338,567h1v1h-1zM463,567h1v1h-1zM565,567h1v1h-1zM631,567h1v1h-1zM687,567h1v1h-1zM791,567h5v1h-5zM816,567h1v1h-1zM208,568h1v1h-1zM230,568h5v1h-5zM338,568h1v1h-1zM463,568h1v1h-1zM565,568h2v1h-2zM632,568h1v1h-1zM687,568h1v1h-1zM791,568h4v1h-4zM816,568h1v1h-1zM208,569h1v1h-1zM230,569h5v1h-5zM339,569h1v1h-1zM463,569h1v1h-1zM566,569h2v1h-2zM633,569h1v1h-1zM686,569h1v1h-1zM791,569h4v1h-4zM815,569h2v1h-2zM209,570h1v1h-1zM231,570h4v1h-4zM339,570h1v1h-1zM463,570h1v1h-1zM567,570h2v1h-2zM634,570h1v1h-1zM685,570h2v1h-2zM791,570h4v1h-4zM815,570h1v1h-1zM209,571h1v1h-1zM231,571h5v1h-5zM340,571h1v1h-1zM463,571h1v1h-1zM568,571h2v1h-2zM635,571h1v1h-1zM685,571h1v1h-1zM790,571h4v1h-4zM815,571h1v1h-1zM209,572h1v1h-1zM231,572h5v1h-5zM340,572h1v1h-1zM463,572h1v1h-1zM569,572h2v1h-2zM636,572h1v1h-1zM684,572h1v1h-1zM790,572h4v1h-4zM815,572h1v1h-1zM209,573h1v1h-1zM231,573h5v1h-5zM341,573h1v1h-1zM463,573h1v1h-1zM571,573h1v1h-1zM636,573h2v1h-2zM684,573h1v1h-1zM790,573h4v1h-4zM814,573h2v1h-2zM210,574h1v1h-1zM232,574h5v1h-5zM342,574h1v1h-1zM463,574h1v1h-1zM572,574h1v1h-1zM637,574h2v1h-2zM683,574h1v1h-1zM789,574h5v1h-5zM814,574h1v1h-1zM210,575h1v1h-1zM232,575h5v1h-5zM342,575h1v1h-1zM463,575h1v1h-1zM573,575h1v1h-1zM638,575h1v1h-1zM682,575h2v1h-2zM789,575h4v1h-4zM814,575h1v1h-1zM210,576h1v1h-1zM232,576h5v1h-5zM343,576h1v1h-1zM463,576h1v1h-1zM573,576h2v1h-2zM639,576h1v1h-1zM682,576h1v1h-1zM789,576h4v1h-4zM813,576h2v1h-2zM211,577h1v1h-1zM233,577h4v1h-4zM344,577h1v1h-1zM463,577h1v1h-1zM574,577h2v1h-2zM640,577h1v1h-1zM681,577h1v1h-1zM789,577h4v1h-4zM813,577h1v1h-1zM211,578h1v1h-1zM233,578h5v1h-5zM344,578h1v1h-1zM463,578h1v1h-1zM575,578h2v1h-2zM641,578h1v1h-1zM680,578h1v1h-1zM788,578h4v1h-4zM813,578h1v1h-1zM211,579h1v1h-1zM233,579h5v1h-5zM345,579h1v1h-1zM463,579h1v1h-1zM577,579h1v1h-1zM642,579h1v1h-1zM679,579h2v1h-2zM788,579h4v1h-4zM813,579h1v1h-1zM211,580h1v1h-1zM233,580h5v1h-5zM346,580h1v1h-1zM411,580h1v1h-1zM463,580h1v1h-1zM577,580h2v1h-2zM643,580h1v1h-1zM679,580h1v1h-1zM788,580h4v1h-4zM812,580h1v1h-1zM212,581h1v1h-1zM234,581h5v1h-5zM346,581h1v1h-1zM463,581h1v1h-1zM578,581h1v1h-1zM644,581h1v1h-1zM678,581h1v1h-1zM787,581h5v1h-5zM812,581h1v1h-1zM212,582h1v1h-1zM234,582h5v1h-5zM347,582h1v1h-1zM411,582h1v1h-1zM463,582h1v1h-1zM579,582h2v1h-2zM645,582h1v1h-1zM677,582h2v1h-2zM787,582h4v1h-4zM812,582h1v1h-1zM212,583h1v1h-1zM235,583h5v1h-5zM348,583h1v1h-1zM412,583h51v1h-51zM580,583h67v1h-67zM676,583h2v1h-2zM787,583h4v1h-4zM811,583h2v1h-2zM213,584h1v1h-1zM235,584h5v1h-5zM348,584h1v1h-1zM676,584h1v1h-1zM786,584h4v1h-4zM811,584h1v1h-1zM213,585h1v1h-1zM235,585h5v1h-5zM349,585h1v1h-1zM675,585h1v1h-1zM786,585h4v1h-4zM811,585h1v1h-1zM213,586h1v1h-1zM236,586h4v1h-4zM350,586h1v1h-1zM674,586h1v1h-1zM786,586h4v1h-4zM810,586h2v1h-2zM214,587h1v1h-1zM236,587h5v1h-5zM350,587h2v1h-2zM673,587h2v1h-2zM785,587h4v1h-4zM810,587h1v1h-1zM214,588h1v1h-1zM236,588h5v1h-5zM351,588h2v1h-2zM673,588h1v1h-1zM785,588h4v1h-4zM810,588h1v1h-1zM214,589h1v1h-1zM237,589h4v1h-4zM352,589h1v1h-1zM672,589h1v1h-1zM785,589h4v1h-4zM809,589h2v1h-2zM215,590h1v1h-1zM237,590h5v1h-5zM353,590h1v1h-1zM671,590h1v1h-1zM784,590h4v1h-4zM809,590h1v1h-1zM215,591h1v1h-1zM237,591h5v1h-5zM354,591h1v1h-1zM670,591h2v1h-2zM784,591h4v1h-4zM809,591h1v1h-1zM215,592h1v1h-1zM238,592h4v1h-4zM354,592h2v1h-2zM669,592h2v1h-2zM783,592h5v1h-5zM808,592h2v1h-2zM215,593h2v1h-2zM238,593h5v1h-5zM355,593h1v1h-1zM668,593h2v1h-2zM783,593h4v1h-4zM808,593h1v1h-1zM216,594h1v1h-1zM238,594h5v1h-5zM356,594h1v1h-1zM668,594h1v1h-1zM783,594h4v1h-4zM808,594h1v1h-1zM216,595h1v1h-1zM239,595h4v1h-4zM357,595h1v1h-1zM667,595h1v1h-1zM782,595h4v1h-4zM807,595h2v1h-2zM217,596h1v1h-1zM239,596h5v1h-5zM358,596h1v1h-1zM666,596h1v1h-1zM782,596h4v1h-4zM807,596h1v1h-1zM217,597h1v1h-1zM239,597h5v1h-5zM359,597h1v1h-1zM665,597h1v1h-1zM781,597h5v1h-5zM807,597h1v1h-1zM217,598h1v1h-1zM240,598h5v1h-5zM360,598h1v1h-1zM664,598h1v1h-1zM781,598h4v1h-4zM806,598h1v1h-1zM218,599h1v1h-1zM240,599h5v1h-5zM360,599h2v1h-2zM663,599h2v1h-2zM781,599h4v1h-4zM806,599h1v1h-1zM218,600h1v1h-1zM241,600h5v1h-5zM361,600h1v1h-1zM662,600h1v1h-1zM780,600h5v1h-5zM806,600h1v1h-1zM218,601h1v1h-1zM241,601h5v1h-5zM362,601h1v1h-1zM661,601h2v1h-2zM780,601h4v1h-4zM805,601h1v1h-1zM219,602h1v1h-1zM241,602h5v1h-5zM363,602h1v1h-1zM660,602h2v1h-2zM779,602h5v1h-5zM805,602h1v1h-1zM219,603h1v1h-1zM242,603h5v1h-5zM364,603h1v1h-1zM659,603h2v1h-2zM779,603h4v1h-4zM804,603h2v1h-2zM219,604h2v1h-2zM242,604h5v1h-5zM365,604h1v1h-1zM658,604h2v1h-2zM778,604h5v1h-5zM804,604h1v1h-1zM220,605h1v1h-1zM243,605h5v1h-5zM366,605h1v1h-1zM657,605h2v1h-2zM778,605h4v1h-4zM804,605h1v1h-1zM220,606h1v1h-1zM243,606h5v1h-5zM367,606h1v1h-1zM656,606h2v1h-2zM778,606h4v1h-4zM803,606h1v1h-1zM221,607h1v1h-1zM244,607h4v1h-4zM368,607h1v1h-1zM655,607h2v1h-2zM777,607h4v1h-4zM803,607h1v1h-1zM221,608h1v1h-1zM244,608h5v1h-5zM369,608h1v1h-1zM654,608h2v1h-2zM777,608h4v1h-4zM802,608h2v1h-2zM221,609h2v1h-2zM244,609h5v1h-5zM370,609h1v1h-1zM653,609h2v1h-2zM776,609h5v1h-5zM802,609h1v1h-1zM222,610h1v1h-1zM245,610h5v1h-5zM371,610h1v1h-1zM652,610h2v1h-2zM776,610h4v1h-4zM802,610h1v1h-1zM222,611h1v1h-1zM245,611h5v1h-5zM372,611h1v1h-1zM651,611h1v1h-1zM775,611h5v1h-5zM801,611h2v1h-2zM223,612h1v1h-1zM246,612h5v1h-5zM373,612h1v1h-1zM650,612h1v1h-1zM775,612h4v1h-4zM801,612h1v1h-1zM223,613h1v1h-1zM246,613h5v1h-5zM374,613h1v1h-1zM649,613h1v1h-1zM774,613h5v1h-5zM800,613h2v1h-2zM224,614h1v1h-1zM246,614h6v1h-6zM375,614h2v1h-2zM648,614h1v1h-1zM774,614h4v1h-4zM800,614h1v1h-1zM224,615h1v1h-1zM247,615h5v1h-5zM376,615h2v1h-2zM647,615h1v1h-1zM774,615h4v1h-4zM799,615h2v1h-2zM224,616h1v1h-1zM247,616h6v1h-6zM378,616h1v1h-1zM645,616h2v1h-2zM773,616h4v1h-4zM799,616h1v1h-1zM225,617h1v1h-1zM248,617h5v1h-5zM379,617h1v1h-1zM644,617h2v1h-2zM772,617h5v1h-5zM799,617h1v1h-1zM225,618h1v1h-1zM248,618h6v1h-6zM380,618h1v1h-1zM643,618h2v1h-2zM772,618h4v1h-4zM798,618h1v1h-1zM226,619h1v1h-1zM249,619h5v1h-5zM381,619h2v1h-2zM642,619h1v1h-1zM771,619h5v1h-5zM798,619h1v1h-1zM226,620h1v1h-1zM249,620h6v1h-6zM382,620h2v1h-2zM640,620h2v1h-2zM771,620h4v1h-4zM797,620h2v1h-2zM226,621h2v1h-2zM250,621h5v1h-5zM384,621h1v1h-1zM639,621h2v1h-2zM770,621h5v1h-5zM797,621h1v1h-1zM227,622h1v1h-1zM250,622h6v1h-6zM385,622h1v1h-1zM638,622h2v1h-2zM770,622h4v1h-4zM796,622h2v1h-2zM227,623h1v1h-1zM251,623h5v1h-5zM386,623h2v1h-2zM637,623h1v1h-1zM769,623h5v1h-5zM796,623h1v1h-1zM228,624h1v1h-1zM251,624h6v1h-6zM387,624h2v1h-2zM635,624h2v1h-2zM769,624h4v1h-4zM795,624h2v1h-2zM228,625h1v1h-1zM252,625h5v1h-5zM389,625h1v1h-1zM634,625h2v1h-2zM768,625h5v1h-5zM795,625h1v1h-1zM229,626h1v1h-1zM252,626h6v1h-6zM390,626h2v1h-2zM633,626h1v1h-1zM768,626h4v1h-4zM794,626h2v1h-2zM229,627h1v1h-1zM253,627h5v1h-5zM391,627h2v1h-2zM631,627h2v1h-2zM767,627h5v1h-5zM794,627h1v1h-1zM230,628h1v1h-1zM253,628h6v1h-6zM393,628h1v1h-1zM630,628h2v1h-2zM767,628h4v1h-4zM793,628h2v1h-2zM230,629h1v1h-1zM254,629h5v1h-5zM394,629h2v1h-2zM628,629h2v1h-2zM766,629h5v1h-5zM793,629h1v1h-1zM231,630h1v1h-1zM254,630h6v1h-6zM395,630h2v1h-2zM627,630h2v1h-2zM766,630h4v1h-4zM792,630h2v1h-2zM231,631h1v1h-1zM255,631h5v1h-5zM397,631h2v1h-2zM625,631h2v1h-2zM765,631h5v1h-5zM792,631h1v1h-1zM232,632h1v1h-1zM255,632h6v1h-6zM399,632h1v1h-1zM624,632h1v1h-1zM765,632h4v1h-4zM791,632h2v1h-2zM232,633h1v1h-1zM256,633h5v1h-5zM400,633h2v1h-2zM622,633h2v1h-2zM764,633h5v1h-5zM791,633h1v1h-1zM233,634h1v1h-1zM256,634h6v1h-6zM401,634h2v1h-2zM620,634h2v1h-2zM763,634h5v1h-5zM790,634h2v1h-2zM233,635h1v1h-1zM257,635h5v1h-5zM403,635h2v1h-2zM619,635h2v1h-2zM763,635h5v1h-5zM790,635h1v1h-1zM234,636h1v1h-1zM258,636h5v1h-5zM404,636h2v1h-2zM617,636h2v1h-2zM762,636h5v1h-5zM789,636h2v1h-2zM234,637h1v1h-1zM258,637h6v1h-6zM406,637h2v1h-2zM615,637h2v1h-2zM762,637h5v1h-5zM789,637h1v1h-1zM235,638h1v1h-1zM259,638h5v1h-5zM408,638h2v1h-2zM613,638h3v1h-3zM761,638h5v1h-5zM788,638h1v1h-1zM235,639h1v1h-1zM259,639h6v1h-6zM409,639h2v1h-2zM612,639h2v1h-2zM760,639h5v1h-5zM788,639h1v1h-1zM236,640h1v1h-1zM260,640h6v1h-6zM411,640h2v1h-2zM610,640h2v1h-2zM760,640h5v1h-5zM787,640h1v1h-1zM236,641h2v1h-2zM261,641h5v1h-5zM413,641h2v1h-2zM608,641h2v1h-2zM759,641h5v1h-5zM787,641h1v1h-1zM237,642h1v1h-1zM261,642h6v1h-6zM415,642h2v1h-2zM606,642h2v1h-2zM759,642h4v1h-4zM786,642h1v1h-1zM238,643h1v1h-1zM262,643h5v1h-5zM417,643h2v1h-2zM604,643h2v1h-2zM758,643h5v1h-5zM785,643h2v1h-2zM238,644h1v1h-1zM262,644h6v1h-6zM419,644h2v1h-2zM602,644h2v1h-2zM757,644h5v1h-5zM785,644h1v1h-1zM239,645h1v1h-1zM263,645h6v1h-6zM421,645h2v1h-2zM600,645h2v1h-2zM757,645h5v1h-5zM784,645h2v1h-2zM239,646h1v1h-1zM264,646h5v1h-5zM423,646h2v1h-2zM598,646h2v1h-2zM756,646h5v1h-5zM784,646h1v1h-1zM240,647h1v1h-1zM264,647h6v1h-6zM425,647h2v1h-2zM596,647h3v1h-3zM756,647h4v1h-4zM783,647h2v1h-2zM240,648h2v1h-2zM265,648h6v1h-6zM427,648h2v1h-2zM593,648h3v1h-3zM755,648h5v1h-5zM783,648h1v1h-1zM241,649h1v1h-1zM266,649h5v1h-5zM429,649h3v1h-3zM591,649h3v1h-3zM754,649h5v1h-5zM782,649h1v1h-1zM241,650h2v1h-2zM266,650h6v1h-6zM432,650h2v1h-2zM589,650h3v1h-3zM754,650h4v1h-4zM781,650h2v1h-2zM242,651h1v1h-1zM267,651h6v1h-6zM434,651h3v1h-3zM586,651h3v1h-3zM753,651h5v1h-5zM781,651h1v1h-1zM243,652h1v1h-1zM268,652h5v1h-5zM437,652h2v1h-2zM583,652h3v1h-3zM752,652h5v1h-5zM780,652h1v1h-1zM243,653h1v1h-1zM268,653h6v1h-6zM439,653h3v1h-3zM580,653h3v1h-3zM752,653h5v1h-5zM780,653h1v1h-1zM244,654h1v1h-1zM269,654h6v1h-6zM441,654h4v1h-4zM577,654h3v1h-3zM751,654h5v1h-5zM779,654h1v1h-1zM245,655h1v1h-1zM270,655h5v1h-5zM444,655h4v1h-4zM574,655h4v1h-4zM750,655h5v1h-5zM778,655h2v1h-2zM245,656h1v1h-1zM270,656h6v1h-6zM448,656h3v1h-3zM571,656h3v1h-3zM750,656h4v1h-4zM778,656h1v1h-1zM246,657h1v1h-1zM271,657h6v1h-6zM450,657h4v1h-4zM567,657h4v1h-4zM749,657h5v1h-5zM777,657h1v1h-1zM247,658h1v1h-1zM272,658h6v1h-6zM454,658h4v1h-4zM564,658h4v1h-4zM748,658h5v1h-5zM777,658h1v1h-1zM247,659h1v1h-1zM273,659h5v1h-5zM458,659h4v1h-4zM560,659h4v1h-4zM747,659h5v1h-5zM776,659h1v1h-1zM248,660h1v1h-1zM273,660h6v1h-6zM461,660h5v1h-5zM556,660h4v1h-4zM747,660h5v1h-5zM775,660h1v1h-1zM248,661h1v1h-1zM274,661h6v1h-6zM466,661h5v1h-5zM551,661h5v1h-5zM746,661h5v1h-5zM774,661h2v1h-2zM249,662h1v1h-1zM275,662h6v1h-6zM471,662h6v1h-6zM546,662h6v1h-6zM745,662h5v1h-5zM774,662h1v1h-1zM250,663h1v1h-1zM276,663h5v1h-5zM477,663h7v1h-7zM539,663h7v1h-7zM744,663h5v1h-5zM773,663h1v1h-1zM250,664h1v1h-1zM276,664h6v1h-6zM483,664h10v1h-10zM529,664h10v1h-10zM744,664h5v1h-5zM773,664h1v1h-1zM251,665h1v1h-1zM277,665h6v1h-6zM493,665h36v1h-36zM743,665h5v1h-5zM772,665h1v1h-1zM252,666h1v1h-1zM278,666h6v1h-6zM742,666h5v1h-5zM771,666h1v1h-1zM252,667h1v1h-1zM279,667h6v1h-6zM741,667h5v1h-5zM770,667h2v1h-2zM253,668h1v1h-1zM279,668h6v1h-6zM741,668h5v1h-5zM770,668h1v1h-1zM254,669h1v1h-1zM280,669h6v1h-6zM740,669h5v1h-5zM769,669h1v1h-1zM254,670h2v1h-2zM281,670h6v1h-6zM739,670h5v1h-5zM768,670h2v1h-2zM255,671h1v1h-1zM282,671h6v1h-6zM738,671h5v1h-5zM767,671h2v1h-2zM256,672h1v1h-1zM283,672h6v1h-6zM737,672h6v1h-6zM767,672h2v1h-2zM256,673h2v1h-2zM283,673h6v1h-6zM736,673h6v1h-6zM766,673h2v1h-2zM257,674h1v1h-1zM284,674h6v1h-6zM736,674h5v1h-5zM766,674h1v1h-1zM258,675h1v1h-1zM285,675h6v1h-6zM735,675h5v1h-5zM765,675h1v1h-1zM259,676h1v1h-1zM286,676h6v1h-6zM734,676h5v1h-5zM764,676h1v1h-1zM259,677h2v1h-2zM287,677h6v1h-6zM733,677h6v1h-6zM763,677h2v1h-2zM260,678h1v1h-1zM288,678h6v1h-6zM732,678h6v1h-6zM763,678h1v1h-1zM261,679h1v1h-1zM288,679h7v1h-7zM731,679h6v1h-6zM762,679h1v1h-1zM262,680h1v1h-1zM289,680h7v1h-7zM730,680h6v1h-6zM761,680h2v1h-2zM263,681h1v1h-1zM290,681h7v1h-7zM730,681h5v1h-5zM760,681h2v1h-2zM263,682h2v1h-2zM291,682h7v1h-7zM729,682h5v1h-5zM760,682h1v1h-1zM264,683h1v1h-1zM292,683h6v1h-6zM728,683h5v1h-5zM759,683h1v1h-1zM265,684h1v1h-1zM293,684h6v1h-6zM727,684h5v1h-5zM758,684h2v1h-2zM266,685h1v1h-1zM294,685h6v1h-6zM726,685h6v1h-6zM757,685h2v1h-2zM267,686h1v1h-1zM295,686h6v1h-6zM725,686h6v1h-6zM756,686h2v1h-2zM267,687h1v1h-1zM296,687h6v1h-6zM724,687h6v1h-6zM756,687h1v1h-1zM268,688h1v1h-1zM297,688h6v1h-6zM723,688h6v1h-6zM755,688h1v1h-1zM269,689h1v1h-1zM298,689h6v1h-6zM722,689h6v1h-6zM754,689h2v1h-2zM270,690h1v1h-1zM299,690h6v1h-6zM721,690h6v1h-6zM753,690h2v1h-2zM271,691h1v1h-1zM300,691h6v1h-6zM720,691h6v1h-6zM752,691h2v1h-2zM300,692h7v1h-7zM719,692h6v1h-6zM752,692h1v1h-1zM272,693h1v1h-1zM302,693h6v1h-6zM718,693h6v1h-6zM751,693h1v1h-1zM273,694h1v1h-1zM302,694h7v1h-7zM717,694h6v1h-6zM750,694h2v1h-2zM274,695h1v1h-1zM303,695h7v1h-7zM716,695h6v1h-6zM749,695h2v1h-2zM275,696h1v1h-1zM305,696h6v1h-6zM715,696h6v1h-6zM748,696h2v1h-2zM276,697h1v1h-1zM306,697h6v1h-6zM714,697h6v1h-6zM747,697h2v1h-2zM277,698h1v1h-1zM307,698h6v1h-6zM713,698h6v1h-6zM746,698h2v1h-2zM278,699h1v1h-1zM308,699h6v1h-6zM712,699h6v1h-6zM745,699h2v1h-2zM278,700h2v1h-2zM309,700h6v1h-6zM711,700h6v1h-6zM744,700h2v1h-2zM279,701h2v1h-2zM310,701h7v1h-7zM710,701h6v1h-6zM744,701h1v1h-1zM280,702h2v1h-2zM311,702h7v1h-7zM709,702h6v1h-6zM743,702h1v1h-1zM281,703h2v1h-2zM312,703h7v1h-7zM708,703h6v1h-6zM742,703h1v1h-1zM282,704h2v1h-2zM313,704h7v1h-7zM706,704h7v1h-7zM741,704h1v1h-1zM283,705h2v1h-2zM314,705h7v1h-7zM705,705h6v1h-6zM740,705h1v1h-1zM284,706h2v1h-2zM315,706h7v1h-7zM704,706h6v1h-6zM739,706h1v1h-1zM285,707h2v1h-2zM316,707h7v1h-7zM703,707h6v1h-6zM738,707h1v1h-1zM286,708h1v1h-1zM318,708h7v1h-7zM702,708h6v1h-6zM737,708h1v1h-1zM287,709h2v1h-2zM319,709h7v1h-7zM700,709h7v1h-7zM736,709h1v1h-1zM288,710h2v1h-2zM320,710h7v1h-7zM699,710h7v1h-7zM735,710h1v1h-1zM289,711h1v1h-1zM321,711h7v1h-7zM698,711h6v1h-6zM734,711h1v1h-1zM290,712h1v1h-1zM322,712h8v1h-8zM696,712h7v1h-7zM733,712h1v1h-1zM291,713h1v1h-1zM323,713h8v1h-8zM695,713h7v1h-7zM732,713h1v1h-1zM292,714h1v1h-1zM325,714h7v1h-7zM694,714h7v1h-7zM731,714h1v1h-1zM293,715h1v1h-1zM326,715h7v1h-7zM693,715h6v1h-6zM729,715h2v1h-2zM294,716h1v1h-1zM327,716h8v1h-8zM691,716h7v1h-7zM728,716h2v1h-2zM295,717h2v1h-2zM328,717h8v1h-8zM690,717h7v1h-7zM727,717h2v1h-2zM297,718h1v1h-1zM329,718h8v1h-8zM689,718h7v1h-7zM726,718h2v1h-2zM298,719h1v1h-1zM331,719h8v1h-8zM687,719h7v1h-7zM725,719h2v1h-2zM299,720h1v1h-1zM332,720h8v1h-8zM686,720h7v1h-7zM724,720h2v1h-2zM300,721h1v1h-1zM333,721h8v1h-8zM684,721h8v1h-8zM723,721h2v1h-2zM301,722h1v1h-1zM335,722h8v1h-8zM683,722h7v1h-7zM722,722h2v1h-2zM302,723h1v1h-1zM336,723h8v1h-8zM682,723h7v1h-7zM721,723h2v1h-2zM303,724h2v1h-2zM337,724h9v1h-9zM680,724h8v1h-8zM720,724h1v1h-1zM304,725h2v1h-2zM339,725h8v1h-8zM679,725h7v1h-7zM719,725h1v1h-1zM305,726h2v1h-2zM340,726h8v1h-8zM677,726h8v1h-8zM717,726h2v1h-2zM306,727h2v1h-2zM341,727h9v1h-9zM676,727h7v1h-7zM716,727h2v1h-2zM308,728h1v1h-1zM343,728h9v1h-9zM674,728h8v1h-8zM715,728h2v1h-2zM309,729h1v1h-1zM344,729h9v1h-9zM673,729h7v1h-7zM714,729h2v1h-2zM310,730h2v1h-2zM346,730h8v1h-8zM671,730h8v1h-8zM712,730h2v1h-2zM311,731h2v1h-2zM347,731h9v1h-9zM670,731h8v1h-8zM711,731h2v1h-2zM313,732h1v1h-1zM349,732h8v1h-8zM668,732h8v1h-8zM710,732h2v1h-2zM314,733h1v1h-1zM350,733h9v1h-9zM667,733h8v1h-8zM709,733h2v1h-2zM315,734h2v1h-2zM352,734h8v1h-8zM665,734h8v1h-8zM707,734h2v1h-2zM316,735h2v1h-2zM353,735h9v1h-9zM663,735h8v1h-8zM706,735h2v1h-2zM317,736h2v1h-2zM355,736h9v1h-9zM661,736h9v1h-9zM705,736h2v1h-2zM319,737h1v1h-1zM356,737h10v1h-10zM660,737h8v1h-8zM703,737h2v1h-2zM320,738h2v1h-2zM358,738h9v1h-9zM658,738h8v1h-8zM702,738h2v1h-2zM321,739h2v1h-2zM360,739h9v1h-9zM656,739h9v1h-9zM701,739h2v1h-2zM323,740h1v1h-1zM361,740h10v1h-10zM655,740h8v1h-8zM699,740h2v1h-2zM324,741h2v1h-2zM363,741h9v1h-9zM653,741h9v1h-9zM698,741h2v1h-2zM325,742h2v1h-2zM365,742h9v1h-9zM651,742h9v1h-9zM697,742h2v1h-2zM327,743h1v1h-1zM366,743h10v1h-10zM649,743h9v1h-9zM695,743h2v1h-2zM328,744h2v1h-2zM368,744h10v1h-10zM647,744h10v1h-10zM694,744h2v1h-2zM329,745h2v1h-2zM370,745h10v1h-10zM645,745h10v1h-10zM692,745h2v1h-2zM331,746h2v1h-2zM371,746h11v1h-11zM643,746h10v1h-10zM691,746h2v1h-2zM332,747h2v1h-2zM373,747h11v1h-11zM641,747h10v1h-10zM689,747h3v1h-3zM334,748h1v1h-1zM375,748h11v1h-11zM639,748h10v1h-10zM688,748h2v1h-2zM335,749h2v1h-2zM377,749h11v1h-11zM637,749h10v1h-10zM687,749h2v1h-2zM337,750h1v1h-1zM379,750h11v1h-11zM635,750h10v1h-10zM685,750h3v1h-3zM338,751h2v1h-2zM381,751h11v1h-11zM633,751h10v1h-10zM684,751h2v1h-2zM339,752h2v1h-2zM383,752h11v1h-11zM631,752h10v1h-10zM682,752h2v1h-2zM341,753h2v1h-2zM385,753h11v1h-11zM628,753h11v1h-11zM681,753h2v1h-2zM343,754h1v1h-1zM387,754h11v1h-11zM626,754h11v1h-11zM679,754h2v1h-2zM344,755h2v1h-2zM389,755h12v1h-12zM624,755h11v1h-11zM677,755h3v1h-3zM346,756h1v1h-1zM391,756h12v1h-12zM622,756h11v1h-11zM676,756h2v1h-2zM347,757h2v1h-2zM393,757h13v1h-13zM619,757h12v1h-12zM674,757h2v1h-2zM349,758h2v1h-2zM395,758h13v1h-13zM617,758h11v1h-11zM672,758h3v1h-3zM350,759h2v1h-2zM398,759h13v1h-13zM615,759h11v1h-11zM670,759h3v1h-3zM352,760h2v1h-2zM400,760h13v1h-13zM612,760h12v1h-12zM669,760h2v1h-2zM354,761h1v1h-1zM403,761h13v1h-13zM609,761h12v1h-12zM667,761h3v1h-3zM355,762h2v1h-2zM405,762h13v1h-13zM606,762h13v1h-13zM665,762h3v1h-3zM357,763h2v1h-2zM407,763h14v1h-14zM604,763h13v1h-13zM663,763h3v1h-3zM359,764h2v1h-2zM410,764h14v1h-14zM601,764h13v1h-13zM662,764h2v1h-2zM360,765h3v1h-3zM413,765h15v1h-15zM598,765h13v1h-13zM660,765h3v1h-3zM362,766h3v1h-3zM415,766h16v1h-16zM594,766h14v1h-14zM658,766h3v1h-3zM364,767h3v1h-3zM418,767h16v1h-16zM591,767h14v1h-14zM656,767h3v1h-3zM366,768h2v1h-2zM421,768h17v1h-17zM587,768h16v1h-16zM654,768h3v1h-3zM368,769h2v1h-2zM424,769h17v1h-17zM583,769h17v1h-17zM652,769h3v1h-3zM370,770h2v1h-2zM427,770h18v1h-18zM579,770h17v1h-17zM650,770h3v1h-3zM372,771h2v1h-2zM430,771h19v1h-19zM575,771h18v1h-18zM648,771h3v1h-3zM374,772h2v1h-2zM434,772h19v1h-19zM571,772h18v1h-18zM646,772h3v1h-3zM376,773h2v1h-2zM438,773h20v1h-20zM566,773h20v1h-20zM644,773h3v1h-3zM378,774h2v1h-2zM441,774h22v1h-22zM560,774h22v1h-22zM642,774h3v1h-3zM380,775h2v1h-2zM446,775h23v1h-23zM554,775h24v1h-24zM639,775h4v1h-4zM382,776h3v1h-3zM450,776h26v1h-26zM546,776h28v1h-28zM637,776h3v1h-3zM384,777h3v1h-3zM454,777h31v1h-31zM539,777h30v1h-30zM635,777h3v1h-3zM386,778h3v1h-3zM459,778h38v1h-38zM527,778h37v1h-37zM633,778h3v1h-3zM389,779h2v1h-2zM465,779h93v1h-93zM630,779h4v1h-4zM391,780h3v1h-3zM471,780h80v1h-80zM628,780h3v1h-3zM393,781h3v1h-3zM479,781h64v1h-64zM625,781h4v1h-4zM396,782h2v1h-2zM490,782h43v1h-43zM623,782h3v1h-3zM398,783h3v1h-3zM620,783h4v1h-4zM401,784h2v1h-2zM618,784h3v1h-3zM403,785h3v1h-3zM615,785h3v1h-3zM406,786h3v1h-3zM612,786h4v1h-4zM409,787h3v1h-3zM609,787h4v1h-4zM412,788h3v1h-3zM606,788h4v1h-4zM414,789h4v1h-4zM603,789h4v1h-4zM418,790h3v1h-3zM600,790h4v1h-4zM421,791h4v1h-4zM597,791h4v1h-4zM424,792h4v1h-4zM593,792h5v1h-5zM428,793h4v1h-4zM590,793h5v1h-5zM431,794h5v1h-5zM586,794h6v1h-6zM435,795h5v1h-5zM583,795h4v1h-4zM439,796h5v1h-5zM578,796h6v1h-6zM444,797h4v1h-4zM573,797h6v1h-6zM448,798h5v1h-5zM568,798h6v1h-6zM452,799h7v1h-7zM563,799h7v1h-7zM459,800h6v1h-6zM557,800h7v1h-7zM464,801h8v1h-8zM550,801h9v1h-9zM471,802h8v1h-8zM542,802h11v1h-11zM479,803h13v1h-13zM530,803h15v1h-15zM489,804h46v1h-46z" fill="#000"/>
</svg>